%TF.GenerationSoftware,KiCad,Pcbnew,(6.99.0-2239-g14886e426b)*%
%TF.CreationDate,2022-06-28T00:18:28+01:00*%
%TF.ProjectId,Butterfly_Badge_Addon,42757474-6572-4666-9c79-5f4261646765,rev?*%
%TF.SameCoordinates,Original*%
%TF.FileFunction,Copper,L2,Bot*%
%TF.FilePolarity,Positive*%
%FSLAX46Y46*%
G04 Gerber Fmt 4.6, Leading zero omitted, Abs format (unit mm)*
G04 Created by KiCad (PCBNEW (6.99.0-2239-g14886e426b)) date 2022-06-28 00:18:28*
%MOMM*%
%LPD*%
G01*
G04 APERTURE LIST*
G04 Aperture macros list*
%AMRoundRect*
0 Rectangle with rounded corners*
0 $1 Rounding radius*
0 $2 $3 $4 $5 $6 $7 $8 $9 X,Y pos of 4 corners*
0 Add a 4 corners polygon primitive as box body*
4,1,4,$2,$3,$4,$5,$6,$7,$8,$9,$2,$3,0*
0 Add four circle primitives for the rounded corners*
1,1,$1+$1,$2,$3*
1,1,$1+$1,$4,$5*
1,1,$1+$1,$6,$7*
1,1,$1+$1,$8,$9*
0 Add four rect primitives between the rounded corners*
20,1,$1+$1,$2,$3,$4,$5,0*
20,1,$1+$1,$4,$5,$6,$7,0*
20,1,$1+$1,$6,$7,$8,$9,0*
20,1,$1+$1,$8,$9,$2,$3,0*%
G04 Aperture macros list end*
%TA.AperFunction,NonConductor*%
%ADD10C,0.200000*%
%TD*%
%ADD11C,0.150000*%
%TA.AperFunction,NonConductor*%
%ADD12C,0.150000*%
%TD*%
%TA.AperFunction,SMDPad,CuDef*%
%ADD13RoundRect,0.250000X-0.250000X-0.475000X0.250000X-0.475000X0.250000X0.475000X-0.250000X0.475000X0*%
%TD*%
%TA.AperFunction,SMDPad,CuDef*%
%ADD14R,1.000000X1.500000*%
%TD*%
%TA.AperFunction,SMDPad,CuDef*%
%ADD15R,1.500000X1.000000*%
%TD*%
%TA.AperFunction,SMDPad,CuDef*%
%ADD16RoundRect,0.150000X0.825000X0.150000X-0.825000X0.150000X-0.825000X-0.150000X0.825000X-0.150000X0*%
%TD*%
%TA.AperFunction,SMDPad,CuDef*%
%ADD17RoundRect,0.250000X0.450000X-0.262500X0.450000X0.262500X-0.450000X0.262500X-0.450000X-0.262500X0*%
%TD*%
%TA.AperFunction,SMDPad,CuDef*%
%ADD18RoundRect,0.250000X-0.262500X-0.450000X0.262500X-0.450000X0.262500X0.450000X-0.262500X0.450000X0*%
%TD*%
%TA.AperFunction,SMDPad,CuDef*%
%ADD19R,1.000000X3.150000*%
%TD*%
%TA.AperFunction,Conductor*%
%ADD20C,0.250000*%
%TD*%
G04 APERTURE END LIST*
D10*
X109982000Y-86741000D02*
X109474000Y-86360000D01*
X111633000Y-83566000D02*
X111379000Y-83947000D01*
X109474000Y-82677000D02*
X110236000Y-81153000D01*
X107061000Y-84709000D02*
X107061000Y-84201000D01*
X108204000Y-81280000D02*
X107950000Y-81788000D01*
X111633000Y-83566000D02*
X111379000Y-83185000D01*
X110236000Y-81153000D02*
X109728000Y-81407000D01*
X107696000Y-84201000D02*
X107061000Y-84709000D01*
X108839000Y-82677000D02*
X108204000Y-81280000D01*
X107061000Y-84709000D02*
X107569000Y-84836000D01*
X110236000Y-81153000D02*
X110363000Y-81661000D01*
X109474000Y-84328000D02*
X109982000Y-86741000D01*
X109982000Y-86741000D02*
X110236000Y-86233000D01*
X108204000Y-81280000D02*
X108712000Y-81534000D01*
X110998000Y-83566000D02*
X111633000Y-83566000D01*
D11*
%TO.C,Capacitor*%
D12*
G36*
X124005313Y-85378000D02*
G01*
X124133052Y-85378000D01*
X124133052Y-84538048D01*
X124389262Y-84633792D01*
X124389262Y-84518265D01*
X124025096Y-84377581D01*
X124005313Y-84377581D01*
X124005313Y-85378000D01*
G37*
G36*
X123336400Y-84362054D02*
G01*
X123346314Y-84362370D01*
X123365637Y-84363632D01*
X123384286Y-84365736D01*
X123402262Y-84368681D01*
X123419564Y-84372468D01*
X123436192Y-84377096D01*
X123452147Y-84382566D01*
X123467429Y-84388877D01*
X123482037Y-84396030D01*
X123495971Y-84404024D01*
X123509232Y-84412860D01*
X123521819Y-84422537D01*
X123533732Y-84433055D01*
X123544972Y-84444416D01*
X123555539Y-84456617D01*
X123565431Y-84469660D01*
X123574659Y-84483538D01*
X123583292Y-84498305D01*
X123591329Y-84513962D01*
X123598770Y-84530507D01*
X123605617Y-84547942D01*
X123611868Y-84566266D01*
X123614770Y-84575761D01*
X123617524Y-84585479D01*
X123620128Y-84595419D01*
X123622584Y-84605581D01*
X123624891Y-84615966D01*
X123627049Y-84626573D01*
X123629058Y-84637402D01*
X123630919Y-84648454D01*
X123632631Y-84659728D01*
X123634193Y-84671224D01*
X123635607Y-84682942D01*
X123636872Y-84694883D01*
X123637989Y-84707046D01*
X123638956Y-84719431D01*
X123639775Y-84732039D01*
X123640444Y-84744869D01*
X123640965Y-84757921D01*
X123641337Y-84771195D01*
X123641561Y-84784692D01*
X123641635Y-84798411D01*
X123641635Y-84968893D01*
X123641380Y-84982025D01*
X123640980Y-84994951D01*
X123640435Y-85007672D01*
X123639746Y-85020188D01*
X123638912Y-85032497D01*
X123637934Y-85044601D01*
X123636812Y-85056500D01*
X123635544Y-85068193D01*
X123634132Y-85079680D01*
X123632576Y-85090962D01*
X123630875Y-85102038D01*
X123629030Y-85112908D01*
X123627040Y-85123573D01*
X123624905Y-85134032D01*
X123622626Y-85144286D01*
X123620203Y-85154334D01*
X123617635Y-85164177D01*
X123614922Y-85173813D01*
X123609063Y-85192470D01*
X123602626Y-85210305D01*
X123595611Y-85227317D01*
X123588017Y-85243507D01*
X123579845Y-85258874D01*
X123571096Y-85273419D01*
X123561768Y-85287141D01*
X123556878Y-85293693D01*
X123546612Y-85306172D01*
X123535698Y-85317819D01*
X123524134Y-85328635D01*
X123511922Y-85338618D01*
X123499061Y-85347770D01*
X123485551Y-85356089D01*
X123471393Y-85363577D01*
X123456586Y-85370232D01*
X123441130Y-85376056D01*
X123425025Y-85381048D01*
X123408272Y-85385208D01*
X123390869Y-85388535D01*
X123372818Y-85391031D01*
X123354118Y-85392695D01*
X123334770Y-85393527D01*
X123324852Y-85393631D01*
X123314800Y-85393525D01*
X123304916Y-85393206D01*
X123285651Y-85391929D01*
X123267058Y-85389801D01*
X123249137Y-85386823D01*
X123231887Y-85382993D01*
X123215309Y-85378312D01*
X123199403Y-85372781D01*
X123184168Y-85366398D01*
X123169605Y-85359164D01*
X123155714Y-85351079D01*
X123142494Y-85342144D01*
X123129946Y-85332357D01*
X123118070Y-85321719D01*
X123106865Y-85310230D01*
X123096332Y-85297890D01*
X123086471Y-85284699D01*
X123081783Y-85277778D01*
X123072853Y-85263261D01*
X123064518Y-85247843D01*
X123056778Y-85231524D01*
X123049634Y-85214305D01*
X123043086Y-85196186D01*
X123040034Y-85186788D01*
X123037132Y-85177165D01*
X123034379Y-85167317D01*
X123031774Y-85157244D01*
X123029318Y-85146946D01*
X123027011Y-85136422D01*
X123024853Y-85125674D01*
X123022844Y-85114700D01*
X123020983Y-85103501D01*
X123019272Y-85092077D01*
X123017709Y-85080428D01*
X123016295Y-85068553D01*
X123015030Y-85056454D01*
X123013914Y-85044129D01*
X123012946Y-85031579D01*
X123012128Y-85018804D01*
X123011458Y-85005804D01*
X123010937Y-84992579D01*
X123010762Y-84986234D01*
X123137274Y-84986234D01*
X123137718Y-85005567D01*
X123138502Y-85024244D01*
X123139626Y-85042265D01*
X123141090Y-85059629D01*
X123142893Y-85076337D01*
X123145036Y-85092388D01*
X123147518Y-85107783D01*
X123150341Y-85122521D01*
X123153502Y-85136604D01*
X123157004Y-85150029D01*
X123160845Y-85162799D01*
X123165026Y-85174912D01*
X123169546Y-85186368D01*
X123174406Y-85197168D01*
X123179606Y-85207312D01*
X123185145Y-85216799D01*
X123191043Y-85225643D01*
X123197319Y-85233915D01*
X123203973Y-85241618D01*
X123211004Y-85248749D01*
X123218414Y-85255310D01*
X123226201Y-85261301D01*
X123234366Y-85266721D01*
X123242909Y-85271571D01*
X123251829Y-85275850D01*
X123261128Y-85279558D01*
X123270804Y-85282696D01*
X123280858Y-85285264D01*
X123291290Y-85287260D01*
X123302099Y-85288687D01*
X123313287Y-85289543D01*
X123324852Y-85289828D01*
X123336601Y-85289524D01*
X123347971Y-85288614D01*
X123358964Y-85287097D01*
X123369579Y-85284974D01*
X123379816Y-85282243D01*
X123389676Y-85278906D01*
X123399157Y-85274961D01*
X123408261Y-85270411D01*
X123416987Y-85265253D01*
X123425335Y-85259488D01*
X123433305Y-85253117D01*
X123440898Y-85246139D01*
X123448113Y-85238554D01*
X123454950Y-85230362D01*
X123461409Y-85221564D01*
X123467490Y-85212159D01*
X123473169Y-85202117D01*
X123478481Y-85191409D01*
X123483427Y-85180036D01*
X123488006Y-85167996D01*
X123492220Y-85155291D01*
X123496066Y-85141920D01*
X123499547Y-85127882D01*
X123502661Y-85113179D01*
X123505409Y-85097810D01*
X123507790Y-85081775D01*
X123509805Y-85065074D01*
X123511454Y-85047707D01*
X123512736Y-85029674D01*
X123513652Y-85010975D01*
X123514201Y-84991610D01*
X123514339Y-84981678D01*
X123514385Y-84971579D01*
X123514385Y-84767392D01*
X123514062Y-84748560D01*
X123513400Y-84730348D01*
X123512398Y-84712755D01*
X123511057Y-84695783D01*
X123509376Y-84679432D01*
X123507355Y-84663700D01*
X123504995Y-84648588D01*
X123502295Y-84634097D01*
X123499255Y-84620226D01*
X123495876Y-84606974D01*
X123492157Y-84594343D01*
X123488098Y-84582333D01*
X123483700Y-84570942D01*
X123478962Y-84560171D01*
X123473884Y-84550021D01*
X123468467Y-84540491D01*
X123462674Y-84531529D01*
X123456468Y-84523146D01*
X123449851Y-84515340D01*
X123442821Y-84508113D01*
X123435380Y-84501464D01*
X123427526Y-84495394D01*
X123419260Y-84489901D01*
X123410581Y-84484987D01*
X123401491Y-84480650D01*
X123391988Y-84476892D01*
X123382074Y-84473712D01*
X123371747Y-84471111D01*
X123361008Y-84469087D01*
X123349856Y-84467642D01*
X123338293Y-84466774D01*
X123326318Y-84466485D01*
X123314222Y-84466775D01*
X123302542Y-84467645D01*
X123291278Y-84469096D01*
X123280430Y-84471126D01*
X123269999Y-84473736D01*
X123259983Y-84476927D01*
X123250383Y-84480697D01*
X123241199Y-84485048D01*
X123232431Y-84489978D01*
X123224079Y-84495489D01*
X123216143Y-84501580D01*
X123208623Y-84508251D01*
X123201519Y-84515502D01*
X123194831Y-84523333D01*
X123188559Y-84531744D01*
X123182703Y-84540735D01*
X123177202Y-84550360D01*
X123172055Y-84560671D01*
X123167264Y-84571670D01*
X123162827Y-84583355D01*
X123158746Y-84595728D01*
X123155019Y-84608787D01*
X123151648Y-84622533D01*
X123148631Y-84636967D01*
X123145969Y-84652087D01*
X123143662Y-84667894D01*
X123141710Y-84684388D01*
X123140113Y-84701569D01*
X123138871Y-84719437D01*
X123137983Y-84737992D01*
X123137451Y-84757233D01*
X123137318Y-84767112D01*
X123137274Y-84777162D01*
X123137274Y-84986234D01*
X123010762Y-84986234D01*
X123010565Y-84979128D01*
X123010342Y-84965452D01*
X123010267Y-84951551D01*
X123010267Y-84785955D01*
X123010462Y-84772540D01*
X123010803Y-84759345D01*
X123011288Y-84746370D01*
X123011920Y-84733614D01*
X123012697Y-84721079D01*
X123013619Y-84708764D01*
X123014687Y-84696668D01*
X123015900Y-84684793D01*
X123017259Y-84673137D01*
X123018763Y-84661701D01*
X123020413Y-84650485D01*
X123022208Y-84639489D01*
X123024149Y-84628713D01*
X123026236Y-84618157D01*
X123028467Y-84607821D01*
X123030845Y-84597705D01*
X123033368Y-84587808D01*
X123036036Y-84578132D01*
X123041809Y-84559439D01*
X123048164Y-84541625D01*
X123055101Y-84524691D01*
X123062620Y-84508637D01*
X123070721Y-84493463D01*
X123079404Y-84479168D01*
X123088669Y-84465752D01*
X123098528Y-84453183D01*
X123109052Y-84441424D01*
X123120242Y-84430476D01*
X123132099Y-84420339D01*
X123144621Y-84411012D01*
X123157809Y-84402497D01*
X123171663Y-84394793D01*
X123186183Y-84387900D01*
X123201369Y-84381818D01*
X123217221Y-84376547D01*
X123233739Y-84372086D01*
X123250923Y-84368437D01*
X123268773Y-84365599D01*
X123287288Y-84363571D01*
X123306470Y-84362355D01*
X123316311Y-84362051D01*
X123326318Y-84361949D01*
X123336400Y-84362054D01*
G37*
G36*
X122550915Y-84362054D02*
G01*
X122560829Y-84362370D01*
X122580152Y-84363632D01*
X122598801Y-84365736D01*
X122616777Y-84368681D01*
X122634079Y-84372468D01*
X122650707Y-84377096D01*
X122666662Y-84382566D01*
X122681944Y-84388877D01*
X122696552Y-84396030D01*
X122710486Y-84404024D01*
X122723747Y-84412860D01*
X122736334Y-84422537D01*
X122748247Y-84433055D01*
X122759487Y-84444416D01*
X122770054Y-84456617D01*
X122779946Y-84469660D01*
X122789174Y-84483538D01*
X122797807Y-84498305D01*
X122805844Y-84513962D01*
X122813285Y-84530507D01*
X122820132Y-84547942D01*
X122826383Y-84566266D01*
X122829285Y-84575761D01*
X122832039Y-84585479D01*
X122834643Y-84595419D01*
X122837099Y-84605581D01*
X122839406Y-84615966D01*
X122841564Y-84626573D01*
X122843573Y-84637402D01*
X122845434Y-84648454D01*
X122847146Y-84659728D01*
X122848708Y-84671224D01*
X122850122Y-84682942D01*
X122851387Y-84694883D01*
X122852504Y-84707046D01*
X122853471Y-84719431D01*
X122854290Y-84732039D01*
X122854959Y-84744869D01*
X122855480Y-84757921D01*
X122855852Y-84771195D01*
X122856076Y-84784692D01*
X122856150Y-84798411D01*
X122856150Y-84968893D01*
X122855895Y-84982025D01*
X122855495Y-84994951D01*
X122854950Y-85007672D01*
X122854261Y-85020188D01*
X122853427Y-85032497D01*
X122852449Y-85044601D01*
X122851327Y-85056500D01*
X122850059Y-85068193D01*
X122848647Y-85079680D01*
X122847091Y-85090962D01*
X122845390Y-85102038D01*
X122843545Y-85112908D01*
X122841555Y-85123573D01*
X122839420Y-85134032D01*
X122837141Y-85144286D01*
X122834718Y-85154334D01*
X122832150Y-85164177D01*
X122829437Y-85173813D01*
X122823578Y-85192470D01*
X122817141Y-85210305D01*
X122810126Y-85227317D01*
X122802532Y-85243507D01*
X122794360Y-85258874D01*
X122785611Y-85273419D01*
X122776283Y-85287141D01*
X122771393Y-85293693D01*
X122761127Y-85306172D01*
X122750213Y-85317819D01*
X122738649Y-85328635D01*
X122726437Y-85338618D01*
X122713576Y-85347770D01*
X122700066Y-85356089D01*
X122685908Y-85363577D01*
X122671101Y-85370232D01*
X122655645Y-85376056D01*
X122639540Y-85381048D01*
X122622787Y-85385208D01*
X122605384Y-85388535D01*
X122587333Y-85391031D01*
X122568633Y-85392695D01*
X122549285Y-85393527D01*
X122539367Y-85393631D01*
X122529315Y-85393525D01*
X122519431Y-85393206D01*
X122500166Y-85391929D01*
X122481573Y-85389801D01*
X122463652Y-85386823D01*
X122446402Y-85382993D01*
X122429824Y-85378312D01*
X122413918Y-85372781D01*
X122398683Y-85366398D01*
X122384120Y-85359164D01*
X122370229Y-85351079D01*
X122357009Y-85342144D01*
X122344461Y-85332357D01*
X122332585Y-85321719D01*
X122321380Y-85310230D01*
X122310847Y-85297890D01*
X122300986Y-85284699D01*
X122296298Y-85277778D01*
X122287368Y-85263261D01*
X122279033Y-85247843D01*
X122271293Y-85231524D01*
X122264149Y-85214305D01*
X122257601Y-85196186D01*
X122254549Y-85186788D01*
X122251647Y-85177165D01*
X122248894Y-85167317D01*
X122246289Y-85157244D01*
X122243833Y-85146946D01*
X122241526Y-85136422D01*
X122239368Y-85125674D01*
X122237359Y-85114700D01*
X122235498Y-85103501D01*
X122233787Y-85092077D01*
X122232224Y-85080428D01*
X122230810Y-85068553D01*
X122229545Y-85056454D01*
X122228429Y-85044129D01*
X122227461Y-85031579D01*
X122226643Y-85018804D01*
X122225973Y-85005804D01*
X122225452Y-84992579D01*
X122225277Y-84986234D01*
X122351789Y-84986234D01*
X122352233Y-85005567D01*
X122353017Y-85024244D01*
X122354141Y-85042265D01*
X122355605Y-85059629D01*
X122357408Y-85076337D01*
X122359551Y-85092388D01*
X122362033Y-85107783D01*
X122364856Y-85122521D01*
X122368017Y-85136604D01*
X122371519Y-85150029D01*
X122375360Y-85162799D01*
X122379541Y-85174912D01*
X122384061Y-85186368D01*
X122388921Y-85197168D01*
X122394121Y-85207312D01*
X122399660Y-85216799D01*
X122405558Y-85225643D01*
X122411834Y-85233915D01*
X122418488Y-85241618D01*
X122425519Y-85248749D01*
X122432929Y-85255310D01*
X122440716Y-85261301D01*
X122448881Y-85266721D01*
X122457424Y-85271571D01*
X122466344Y-85275850D01*
X122475643Y-85279558D01*
X122485319Y-85282696D01*
X122495373Y-85285264D01*
X122505805Y-85287260D01*
X122516614Y-85288687D01*
X122527802Y-85289543D01*
X122539367Y-85289828D01*
X122551116Y-85289524D01*
X122562486Y-85288614D01*
X122573479Y-85287097D01*
X122584094Y-85284974D01*
X122594331Y-85282243D01*
X122604191Y-85278906D01*
X122613672Y-85274961D01*
X122622776Y-85270411D01*
X122631502Y-85265253D01*
X122639850Y-85259488D01*
X122647820Y-85253117D01*
X122655413Y-85246139D01*
X122662628Y-85238554D01*
X122669465Y-85230362D01*
X122675924Y-85221564D01*
X122682005Y-85212159D01*
X122687684Y-85202117D01*
X122692996Y-85191409D01*
X122697942Y-85180036D01*
X122702521Y-85167996D01*
X122706735Y-85155291D01*
X122710581Y-85141920D01*
X122714062Y-85127882D01*
X122717176Y-85113179D01*
X122719924Y-85097810D01*
X122722305Y-85081775D01*
X122724320Y-85065074D01*
X122725969Y-85047707D01*
X122727251Y-85029674D01*
X122728167Y-85010975D01*
X122728716Y-84991610D01*
X122728854Y-84981678D01*
X122728900Y-84971579D01*
X122728900Y-84767392D01*
X122728577Y-84748560D01*
X122727915Y-84730348D01*
X122726913Y-84712755D01*
X122725572Y-84695783D01*
X122723891Y-84679432D01*
X122721870Y-84663700D01*
X122719510Y-84648588D01*
X122716810Y-84634097D01*
X122713770Y-84620226D01*
X122710391Y-84606974D01*
X122706672Y-84594343D01*
X122702613Y-84582333D01*
X122698215Y-84570942D01*
X122693477Y-84560171D01*
X122688399Y-84550021D01*
X122682982Y-84540491D01*
X122677189Y-84531529D01*
X122670983Y-84523146D01*
X122664366Y-84515340D01*
X122657336Y-84508113D01*
X122649895Y-84501464D01*
X122642041Y-84495394D01*
X122633775Y-84489901D01*
X122625096Y-84484987D01*
X122616006Y-84480650D01*
X122606503Y-84476892D01*
X122596589Y-84473712D01*
X122586262Y-84471111D01*
X122575523Y-84469087D01*
X122564371Y-84467642D01*
X122552808Y-84466774D01*
X122540833Y-84466485D01*
X122528737Y-84466775D01*
X122517057Y-84467645D01*
X122505793Y-84469096D01*
X122494945Y-84471126D01*
X122484514Y-84473736D01*
X122474498Y-84476927D01*
X122464898Y-84480697D01*
X122455714Y-84485048D01*
X122446946Y-84489978D01*
X122438594Y-84495489D01*
X122430658Y-84501580D01*
X122423138Y-84508251D01*
X122416034Y-84515502D01*
X122409346Y-84523333D01*
X122403074Y-84531744D01*
X122397218Y-84540735D01*
X122391717Y-84550360D01*
X122386570Y-84560671D01*
X122381779Y-84571670D01*
X122377342Y-84583355D01*
X122373261Y-84595728D01*
X122369534Y-84608787D01*
X122366163Y-84622533D01*
X122363146Y-84636967D01*
X122360484Y-84652087D01*
X122358177Y-84667894D01*
X122356225Y-84684388D01*
X122354628Y-84701569D01*
X122353386Y-84719437D01*
X122352498Y-84737992D01*
X122351966Y-84757233D01*
X122351833Y-84767112D01*
X122351789Y-84777162D01*
X122351789Y-84986234D01*
X122225277Y-84986234D01*
X122225080Y-84979128D01*
X122224857Y-84965452D01*
X122224782Y-84951551D01*
X122224782Y-84785955D01*
X122224977Y-84772540D01*
X122225318Y-84759345D01*
X122225803Y-84746370D01*
X122226435Y-84733614D01*
X122227212Y-84721079D01*
X122228134Y-84708764D01*
X122229202Y-84696668D01*
X122230415Y-84684793D01*
X122231774Y-84673137D01*
X122233278Y-84661701D01*
X122234928Y-84650485D01*
X122236723Y-84639489D01*
X122238664Y-84628713D01*
X122240751Y-84618157D01*
X122242982Y-84607821D01*
X122245360Y-84597705D01*
X122247883Y-84587808D01*
X122250551Y-84578132D01*
X122256324Y-84559439D01*
X122262679Y-84541625D01*
X122269616Y-84524691D01*
X122277135Y-84508637D01*
X122285236Y-84493463D01*
X122293919Y-84479168D01*
X122303184Y-84465752D01*
X122313043Y-84453183D01*
X122323567Y-84441424D01*
X122334757Y-84430476D01*
X122346614Y-84420339D01*
X122359136Y-84411012D01*
X122372324Y-84402497D01*
X122386178Y-84394793D01*
X122400698Y-84387900D01*
X122415884Y-84381818D01*
X122431736Y-84376547D01*
X122448254Y-84372086D01*
X122465438Y-84368437D01*
X122483288Y-84365599D01*
X122501803Y-84363571D01*
X122520985Y-84362355D01*
X122530826Y-84362051D01*
X122540833Y-84361949D01*
X122550915Y-84362054D01*
G37*
G36*
X121933156Y-84627685D02*
G01*
X121929004Y-84733931D01*
X121918146Y-84721065D01*
X121906881Y-84709030D01*
X121895210Y-84697824D01*
X121883132Y-84687449D01*
X121870648Y-84677903D01*
X121857758Y-84669188D01*
X121844461Y-84661302D01*
X121830758Y-84654247D01*
X121816648Y-84648022D01*
X121802132Y-84642626D01*
X121787209Y-84638061D01*
X121771880Y-84634326D01*
X121756144Y-84631421D01*
X121740002Y-84629346D01*
X121723454Y-84628100D01*
X121706499Y-84627685D01*
X121691996Y-84627943D01*
X121677950Y-84628715D01*
X121664361Y-84630002D01*
X121651228Y-84631803D01*
X121638551Y-84634120D01*
X121626331Y-84636950D01*
X121614568Y-84640296D01*
X121603261Y-84644157D01*
X121592410Y-84648532D01*
X121582016Y-84653422D01*
X121572079Y-84658826D01*
X121562598Y-84664746D01*
X121553574Y-84671180D01*
X121545006Y-84678128D01*
X121536895Y-84685592D01*
X121529240Y-84693570D01*
X121522041Y-84702063D01*
X121515300Y-84711071D01*
X121509015Y-84720593D01*
X121503186Y-84730630D01*
X121497814Y-84741182D01*
X121492898Y-84752248D01*
X121488439Y-84763830D01*
X121484436Y-84775926D01*
X121480890Y-84788536D01*
X121477801Y-84801662D01*
X121475168Y-84815302D01*
X121472991Y-84829457D01*
X121471271Y-84844126D01*
X121470008Y-84859311D01*
X121469201Y-84875010D01*
X121468851Y-84891224D01*
X121468851Y-85378000D01*
X121595857Y-85378000D01*
X121595857Y-84891224D01*
X121596306Y-84876703D01*
X121597377Y-84862908D01*
X121599071Y-84849838D01*
X121601387Y-84837494D01*
X121604326Y-84825875D01*
X121607887Y-84814983D01*
X121612071Y-84804815D01*
X121616877Y-84795373D01*
X121622306Y-84786657D01*
X121628357Y-84778667D01*
X121632738Y-84773743D01*
X121639824Y-84766933D01*
X121647618Y-84760794D01*
X121656121Y-84755324D01*
X121665333Y-84750524D01*
X121675252Y-84746394D01*
X121685881Y-84742934D01*
X121697217Y-84740143D01*
X121709262Y-84738022D01*
X121722015Y-84736571D01*
X121735477Y-84735790D01*
X121744845Y-84735641D01*
X121756342Y-84735928D01*
X121767568Y-84736791D01*
X121778524Y-84738230D01*
X121789210Y-84740243D01*
X121799624Y-84742832D01*
X121809769Y-84745996D01*
X121819643Y-84749736D01*
X121829246Y-84754051D01*
X121838579Y-84758941D01*
X121847642Y-84764406D01*
X121853533Y-84768369D01*
X121862100Y-84774640D01*
X121870306Y-84781272D01*
X121878151Y-84788265D01*
X121885636Y-84795618D01*
X121892760Y-84803331D01*
X121899523Y-84811406D01*
X121905926Y-84819841D01*
X121911968Y-84828636D01*
X121917650Y-84837793D01*
X121922971Y-84847309D01*
X121926318Y-84853854D01*
X121926318Y-85378000D01*
X122053324Y-85378000D01*
X122053324Y-84627685D01*
X121933156Y-84627685D01*
G37*
G36*
X120709988Y-84938851D02*
G01*
X121129842Y-84938851D01*
X121129842Y-85378000D01*
X121261733Y-85378000D01*
X121261733Y-84377581D01*
X120642089Y-84377581D01*
X120642089Y-84486025D01*
X121129842Y-84486025D01*
X121129842Y-84830896D01*
X120709988Y-84830896D01*
X120709988Y-84938851D01*
G37*
D11*
%TO.C,D4*%
D12*
G36*
X110561095Y-72249682D02*
G01*
X110541800Y-72381573D01*
X110513467Y-72262627D01*
X110315631Y-71564581D01*
X110204500Y-71564581D01*
X110011548Y-72262627D01*
X109983949Y-72383527D01*
X109962700Y-72248949D01*
X109807361Y-71564581D01*
X109674737Y-71564581D01*
X109917271Y-72565000D01*
X110037438Y-72565000D01*
X110243579Y-71835935D01*
X110259455Y-71759731D01*
X110275331Y-71835935D01*
X110488799Y-72565000D01*
X110608966Y-72565000D01*
X110850767Y-71564581D01*
X110718876Y-71564581D01*
X110561095Y-72249682D01*
G37*
G36*
X109240229Y-72119256D02*
G01*
X109250749Y-72116181D01*
X109261087Y-72113062D01*
X109271246Y-72109900D01*
X109281224Y-72106693D01*
X109291022Y-72103443D01*
X109300639Y-72100148D01*
X109310077Y-72096810D01*
X109319334Y-72093428D01*
X109337306Y-72086532D01*
X109354558Y-72079460D01*
X109371088Y-72072213D01*
X109386897Y-72064790D01*
X109401985Y-72057192D01*
X109416351Y-72049418D01*
X109429997Y-72041469D01*
X109442920Y-72033344D01*
X109455123Y-72025043D01*
X109466604Y-72016567D01*
X109477364Y-72007916D01*
X109487403Y-71999089D01*
X109496749Y-71990014D01*
X109505492Y-71980679D01*
X109513633Y-71971085D01*
X109521170Y-71961231D01*
X109528104Y-71951118D01*
X109534435Y-71940745D01*
X109540163Y-71930113D01*
X109545289Y-71919221D01*
X109549811Y-71908070D01*
X109553730Y-71896659D01*
X109557047Y-71884989D01*
X109559760Y-71873060D01*
X109561871Y-71860870D01*
X109563378Y-71848422D01*
X109564282Y-71835713D01*
X109564584Y-71822745D01*
X109564215Y-71808069D01*
X109563107Y-71793715D01*
X109561261Y-71779683D01*
X109558676Y-71765974D01*
X109555353Y-71752588D01*
X109551292Y-71739524D01*
X109546492Y-71726782D01*
X109540953Y-71714363D01*
X109534677Y-71702266D01*
X109527661Y-71690492D01*
X109519907Y-71679040D01*
X109511415Y-71667911D01*
X109502185Y-71657104D01*
X109492216Y-71646620D01*
X109481508Y-71636458D01*
X109470062Y-71626618D01*
X109458025Y-71617213D01*
X109445546Y-71608415D01*
X109432624Y-71600223D01*
X109419259Y-71592638D01*
X109405452Y-71585660D01*
X109391202Y-71579289D01*
X109376509Y-71573524D01*
X109361374Y-71568367D01*
X109345796Y-71563816D01*
X109329775Y-71559871D01*
X109313311Y-71556534D01*
X109296405Y-71553804D01*
X109279056Y-71551680D01*
X109261265Y-71550163D01*
X109243031Y-71549253D01*
X109224354Y-71548949D01*
X109211587Y-71549105D01*
X109198994Y-71549571D01*
X109186575Y-71550349D01*
X109174330Y-71551437D01*
X109162258Y-71552837D01*
X109150359Y-71554548D01*
X109138635Y-71556569D01*
X109127084Y-71558902D01*
X109115707Y-71561546D01*
X109104503Y-71564501D01*
X109093473Y-71567766D01*
X109082616Y-71571343D01*
X109071934Y-71575231D01*
X109061425Y-71579430D01*
X109051089Y-71583940D01*
X109040927Y-71588761D01*
X109030965Y-71593856D01*
X109021289Y-71599187D01*
X109011899Y-71604755D01*
X109002795Y-71610560D01*
X108993977Y-71616601D01*
X108985446Y-71622879D01*
X108977201Y-71629393D01*
X108969242Y-71636144D01*
X108961569Y-71643132D01*
X108954183Y-71650356D01*
X108947083Y-71657817D01*
X108940269Y-71665514D01*
X108933741Y-71673448D01*
X108927499Y-71681619D01*
X108921544Y-71690026D01*
X108915875Y-71698670D01*
X108910492Y-71707483D01*
X108905456Y-71716397D01*
X108900768Y-71725412D01*
X108896427Y-71734528D01*
X108892433Y-71743745D01*
X108888787Y-71753064D01*
X108885488Y-71762483D01*
X108882536Y-71772004D01*
X108879931Y-71781626D01*
X108877674Y-71791349D01*
X108875764Y-71801173D01*
X108874201Y-71811098D01*
X108872985Y-71821125D01*
X108872117Y-71831252D01*
X108871596Y-71841481D01*
X108871423Y-71851810D01*
X109004047Y-71851810D01*
X109004272Y-71840635D01*
X109004947Y-71829764D01*
X109006073Y-71819195D01*
X109007649Y-71808931D01*
X109009676Y-71798969D01*
X109012152Y-71789311D01*
X109015079Y-71779956D01*
X109020314Y-71766493D01*
X109026563Y-71753713D01*
X109033824Y-71741615D01*
X109042099Y-71730199D01*
X109051387Y-71719467D01*
X109061688Y-71709417D01*
X109072912Y-71700120D01*
X109080858Y-71694430D01*
X109089173Y-71689146D01*
X109097859Y-71684269D01*
X109106915Y-71679798D01*
X109116342Y-71675733D01*
X109126138Y-71672076D01*
X109136305Y-71668824D01*
X109146841Y-71665979D01*
X109157748Y-71663540D01*
X109169025Y-71661508D01*
X109180673Y-71659882D01*
X109192690Y-71658663D01*
X109205078Y-71657850D01*
X109217836Y-71657444D01*
X109224354Y-71657393D01*
X109236398Y-71657562D01*
X109248106Y-71658069D01*
X109259479Y-71658913D01*
X109270516Y-71660095D01*
X109281216Y-71661615D01*
X109291581Y-71663472D01*
X109301611Y-71665668D01*
X109311304Y-71668201D01*
X109320662Y-71671072D01*
X109334068Y-71676011D01*
X109346719Y-71681711D01*
X109358615Y-71688170D01*
X109369754Y-71695389D01*
X109376761Y-71700624D01*
X109386495Y-71709024D01*
X109395271Y-71718012D01*
X109403090Y-71727588D01*
X109409951Y-71737753D01*
X109415856Y-71748505D01*
X109420802Y-71759846D01*
X109424791Y-71771775D01*
X109427823Y-71784293D01*
X109429898Y-71797398D01*
X109431015Y-71811091D01*
X109431227Y-71820547D01*
X109430772Y-71831920D01*
X109429407Y-71842958D01*
X109427131Y-71853662D01*
X109423946Y-71864030D01*
X109419850Y-71874064D01*
X109414844Y-71883762D01*
X109408928Y-71893126D01*
X109402101Y-71902155D01*
X109394365Y-71910849D01*
X109385718Y-71919208D01*
X109379448Y-71924595D01*
X109369056Y-71932501D01*
X109357389Y-71940283D01*
X109348902Y-71945401D01*
X109339849Y-71950464D01*
X109330229Y-71955472D01*
X109320042Y-71960425D01*
X109309289Y-71965322D01*
X109297969Y-71970164D01*
X109286082Y-71974951D01*
X109273629Y-71979682D01*
X109260608Y-71984358D01*
X109247021Y-71988979D01*
X109232868Y-71993544D01*
X109218147Y-71998054D01*
X109202860Y-72002508D01*
X109187472Y-72006933D01*
X109172509Y-72011415D01*
X109157972Y-72015955D01*
X109143860Y-72020552D01*
X109130174Y-72025206D01*
X109116913Y-72029917D01*
X109104078Y-72034685D01*
X109091669Y-72039511D01*
X109079685Y-72044394D01*
X109068126Y-72049334D01*
X109056993Y-72054332D01*
X109046285Y-72059386D01*
X109036003Y-72064498D01*
X109026147Y-72069667D01*
X109016716Y-72074894D01*
X109007710Y-72080177D01*
X108999060Y-72085515D01*
X108990693Y-72090966D01*
X108982611Y-72096529D01*
X108971022Y-72105085D01*
X108960071Y-72113894D01*
X108949761Y-72122957D01*
X108940090Y-72132273D01*
X108931059Y-72141842D01*
X108922668Y-72151664D01*
X108914916Y-72161740D01*
X108907804Y-72172069D01*
X108903419Y-72179096D01*
X108897308Y-72189851D01*
X108891798Y-72200957D01*
X108886889Y-72212416D01*
X108882582Y-72224227D01*
X108878875Y-72236390D01*
X108875769Y-72248905D01*
X108873265Y-72261772D01*
X108871362Y-72274992D01*
X108870059Y-72288563D01*
X108869358Y-72302486D01*
X108869225Y-72311964D01*
X108869596Y-72327010D01*
X108870709Y-72341678D01*
X108872565Y-72355968D01*
X108875163Y-72369880D01*
X108878503Y-72383414D01*
X108882585Y-72396571D01*
X108887410Y-72409350D01*
X108892977Y-72421751D01*
X108899286Y-72433774D01*
X108906338Y-72445420D01*
X108914132Y-72456687D01*
X108922668Y-72467577D01*
X108931946Y-72478089D01*
X108941967Y-72488223D01*
X108952730Y-72497980D01*
X108964235Y-72507358D01*
X108976330Y-72516231D01*
X108988923Y-72524532D01*
X109002013Y-72532260D01*
X109015602Y-72539415D01*
X109029689Y-72545998D01*
X109044274Y-72552009D01*
X109059357Y-72557447D01*
X109074938Y-72562313D01*
X109091017Y-72566606D01*
X109107594Y-72570327D01*
X109124669Y-72573475D01*
X109142242Y-72576051D01*
X109160313Y-72578055D01*
X109178882Y-72579486D01*
X109197950Y-72580345D01*
X109217515Y-72580631D01*
X109230345Y-72580477D01*
X109243069Y-72580017D01*
X109255685Y-72579249D01*
X109268195Y-72578173D01*
X109280598Y-72576791D01*
X109292894Y-72575101D01*
X109305084Y-72573104D01*
X109317166Y-72570800D01*
X109329141Y-72568189D01*
X109341010Y-72565270D01*
X109352772Y-72562045D01*
X109364427Y-72558512D01*
X109375975Y-72554672D01*
X109387416Y-72550524D01*
X109398751Y-72546070D01*
X109409978Y-72541308D01*
X109420963Y-72536248D01*
X109431632Y-72530962D01*
X109441984Y-72525448D01*
X109452018Y-72519708D01*
X109461737Y-72513740D01*
X109471138Y-72507545D01*
X109480223Y-72501123D01*
X109488991Y-72494474D01*
X109497442Y-72487598D01*
X109505576Y-72480495D01*
X109513394Y-72473165D01*
X109520895Y-72465608D01*
X109528079Y-72457824D01*
X109534947Y-72449812D01*
X109541497Y-72441574D01*
X109547731Y-72433108D01*
X109553587Y-72424427D01*
X109559066Y-72415603D01*
X109564166Y-72406636D01*
X109568889Y-72397525D01*
X109573234Y-72388272D01*
X109577201Y-72378875D01*
X109580790Y-72369335D01*
X109584001Y-72359652D01*
X109586835Y-72349826D01*
X109589291Y-72339857D01*
X109591369Y-72329745D01*
X109593069Y-72319490D01*
X109594391Y-72309091D01*
X109595336Y-72298550D01*
X109595902Y-72287865D01*
X109596091Y-72277037D01*
X109463467Y-72277037D01*
X109463206Y-72288215D01*
X109462422Y-72299095D01*
X109461115Y-72309678D01*
X109459285Y-72319963D01*
X109456932Y-72329950D01*
X109454056Y-72339640D01*
X109450658Y-72349032D01*
X109446737Y-72358126D01*
X109442293Y-72366922D01*
X109437326Y-72375421D01*
X109431836Y-72383622D01*
X109425823Y-72391526D01*
X109419288Y-72399132D01*
X109412230Y-72406440D01*
X109404649Y-72413451D01*
X109396545Y-72420163D01*
X109388003Y-72426522D01*
X109379108Y-72432471D01*
X109369860Y-72438009D01*
X109360259Y-72443138D01*
X109350306Y-72447855D01*
X109339999Y-72452163D01*
X109329339Y-72456061D01*
X109318326Y-72459548D01*
X109306960Y-72462625D01*
X109295241Y-72465291D01*
X109283169Y-72467548D01*
X109270744Y-72469394D01*
X109257967Y-72470830D01*
X109244836Y-72471855D01*
X109231352Y-72472471D01*
X109217515Y-72472676D01*
X109204668Y-72472509D01*
X109192201Y-72472008D01*
X109180114Y-72471173D01*
X109168407Y-72470004D01*
X109157079Y-72468502D01*
X109146131Y-72466665D01*
X109135563Y-72464495D01*
X109125374Y-72461990D01*
X109115565Y-72459152D01*
X109106136Y-72455979D01*
X109092705Y-72450595D01*
X109080127Y-72444459D01*
X109068404Y-72437572D01*
X109057536Y-72429933D01*
X109047584Y-72421646D01*
X109038611Y-72412814D01*
X109030617Y-72403437D01*
X109023601Y-72393514D01*
X109017565Y-72383046D01*
X109012507Y-72372033D01*
X109008429Y-72360475D01*
X109005329Y-72348371D01*
X109003208Y-72335722D01*
X109002066Y-72322528D01*
X109001848Y-72313429D01*
X109002301Y-72299850D01*
X109003660Y-72286862D01*
X109005925Y-72274467D01*
X109009096Y-72262665D01*
X109013172Y-72251455D01*
X109018154Y-72240838D01*
X109024043Y-72230813D01*
X109030837Y-72221380D01*
X109038537Y-72212540D01*
X109047143Y-72204293D01*
X109053384Y-72199124D01*
X109063783Y-72191532D01*
X109075655Y-72183963D01*
X109084387Y-72178928D01*
X109093774Y-72173903D01*
X109103816Y-72168887D01*
X109114512Y-72163881D01*
X109125863Y-72158885D01*
X109137868Y-72153898D01*
X109150527Y-72148920D01*
X109163841Y-72143952D01*
X109177810Y-72138994D01*
X109192433Y-72134045D01*
X109207711Y-72129106D01*
X109223643Y-72124176D01*
X109240229Y-72119256D01*
G37*
G36*
X108082274Y-72565000D02*
G01*
X108737578Y-72565000D01*
X108737578Y-72473653D01*
X108391241Y-72087993D01*
X108381811Y-72077191D01*
X108372755Y-72066645D01*
X108364073Y-72056354D01*
X108355765Y-72046319D01*
X108347831Y-72036540D01*
X108340271Y-72027016D01*
X108333085Y-72017749D01*
X108326273Y-72008736D01*
X108319835Y-71999980D01*
X108313770Y-71991479D01*
X108308080Y-71983234D01*
X108300246Y-71971346D01*
X108293254Y-71960033D01*
X108287103Y-71949295D01*
X108285240Y-71945844D01*
X108280002Y-71935551D01*
X108275279Y-71925190D01*
X108271072Y-71914760D01*
X108267380Y-71904262D01*
X108264203Y-71893694D01*
X108261541Y-71883058D01*
X108259394Y-71872353D01*
X108257763Y-71861580D01*
X108256646Y-71850738D01*
X108256045Y-71839827D01*
X108255931Y-71832515D01*
X108256347Y-71818062D01*
X108257597Y-71804102D01*
X108259679Y-71790636D01*
X108262594Y-71777664D01*
X108266342Y-71765185D01*
X108270923Y-71753200D01*
X108276337Y-71741709D01*
X108282584Y-71730712D01*
X108289663Y-71720208D01*
X108297576Y-71710198D01*
X108303314Y-71703799D01*
X108312477Y-71694808D01*
X108322199Y-71686700D01*
X108332478Y-71679477D01*
X108343316Y-71673139D01*
X108354712Y-71667685D01*
X108366666Y-71663116D01*
X108379178Y-71659431D01*
X108392249Y-71656630D01*
X108405877Y-71654714D01*
X108420064Y-71653682D01*
X108429832Y-71653485D01*
X108441512Y-71653696D01*
X108452863Y-71654329D01*
X108463883Y-71655383D01*
X108474574Y-71656859D01*
X108484934Y-71658756D01*
X108494964Y-71661076D01*
X108504664Y-71663817D01*
X108514034Y-71666980D01*
X108527470Y-71672514D01*
X108540164Y-71678998D01*
X108552114Y-71686431D01*
X108563322Y-71694812D01*
X108573787Y-71704142D01*
X108577110Y-71707463D01*
X108586495Y-71717911D01*
X108594956Y-71729107D01*
X108602494Y-71741050D01*
X108609110Y-71753739D01*
X108614802Y-71767176D01*
X108618084Y-71776549D01*
X108620956Y-71786254D01*
X108623417Y-71796290D01*
X108625468Y-71806659D01*
X108627109Y-71817360D01*
X108628340Y-71828393D01*
X108629161Y-71839758D01*
X108629571Y-71851455D01*
X108629622Y-71857428D01*
X108756629Y-71857428D01*
X108756281Y-71840384D01*
X108755239Y-71823753D01*
X108753503Y-71807534D01*
X108751072Y-71791727D01*
X108747946Y-71776332D01*
X108744126Y-71761349D01*
X108739612Y-71746778D01*
X108734402Y-71732620D01*
X108728499Y-71718874D01*
X108721900Y-71705539D01*
X108714607Y-71692617D01*
X108706620Y-71680108D01*
X108697938Y-71668010D01*
X108688561Y-71656325D01*
X108678490Y-71645051D01*
X108667724Y-71634190D01*
X108656376Y-71623868D01*
X108644559Y-71614212D01*
X108632273Y-71605221D01*
X108619517Y-71596897D01*
X108606291Y-71589239D01*
X108592597Y-71582246D01*
X108578432Y-71575920D01*
X108563799Y-71570259D01*
X108548696Y-71565265D01*
X108533123Y-71560936D01*
X108517082Y-71557274D01*
X108500570Y-71554277D01*
X108483590Y-71551946D01*
X108466140Y-71550281D01*
X108448220Y-71549282D01*
X108429832Y-71548949D01*
X108412627Y-71549236D01*
X108395878Y-71550098D01*
X108379585Y-71551534D01*
X108363749Y-71553544D01*
X108348368Y-71556129D01*
X108333443Y-71559288D01*
X108318975Y-71563021D01*
X108304962Y-71567329D01*
X108291406Y-71572211D01*
X108278306Y-71577667D01*
X108265661Y-71583698D01*
X108253473Y-71590303D01*
X108241741Y-71597482D01*
X108230465Y-71605236D01*
X108219644Y-71613564D01*
X108209280Y-71622466D01*
X108199461Y-71631815D01*
X108190275Y-71641544D01*
X108181723Y-71651652D01*
X108173804Y-71662141D01*
X108166519Y-71673008D01*
X108159867Y-71684256D01*
X108153849Y-71695883D01*
X108148464Y-71707890D01*
X108143713Y-71720277D01*
X108139595Y-71733043D01*
X108136111Y-71746190D01*
X108133260Y-71759716D01*
X108131042Y-71773621D01*
X108129459Y-71787907D01*
X108128508Y-71802572D01*
X108128192Y-71817616D01*
X108128927Y-71836338D01*
X108131134Y-71855501D01*
X108132789Y-71865247D01*
X108134812Y-71875104D01*
X108137203Y-71885071D01*
X108139961Y-71895148D01*
X108143087Y-71905336D01*
X108146581Y-71915633D01*
X108150443Y-71926041D01*
X108154673Y-71936559D01*
X108159270Y-71947187D01*
X108164236Y-71957925D01*
X108169569Y-71968774D01*
X108175270Y-71979733D01*
X108181338Y-71990802D01*
X108187775Y-72001981D01*
X108194579Y-72013270D01*
X108201751Y-72024669D01*
X108209291Y-72036179D01*
X108217198Y-72047799D01*
X108225474Y-72059529D01*
X108234117Y-72071369D01*
X108243128Y-72083320D01*
X108252507Y-72095381D01*
X108262253Y-72107551D01*
X108272368Y-72119833D01*
X108282850Y-72132224D01*
X108293700Y-72144725D01*
X108304917Y-72157337D01*
X108316503Y-72170059D01*
X108584193Y-72461196D01*
X108082274Y-72461196D01*
X108082274Y-72565000D01*
G37*
G36*
X107656571Y-71549243D02*
G01*
X107672545Y-71550125D01*
X107688117Y-71551594D01*
X107703285Y-71553651D01*
X107718052Y-71556296D01*
X107732415Y-71559528D01*
X107746376Y-71563348D01*
X107759935Y-71567756D01*
X107773090Y-71572751D01*
X107785843Y-71578335D01*
X107798194Y-71584506D01*
X107810142Y-71591264D01*
X107821687Y-71598611D01*
X107832830Y-71606545D01*
X107843570Y-71615067D01*
X107853907Y-71624176D01*
X107863697Y-71633756D01*
X107872855Y-71643750D01*
X107881381Y-71654158D01*
X107889276Y-71664980D01*
X107896540Y-71676216D01*
X107903172Y-71687866D01*
X107909172Y-71699930D01*
X107914540Y-71712409D01*
X107919277Y-71725301D01*
X107923383Y-71738608D01*
X107926856Y-71752328D01*
X107929699Y-71766463D01*
X107931909Y-71781011D01*
X107933488Y-71795974D01*
X107934436Y-71811351D01*
X107934751Y-71827142D01*
X107934602Y-71836453D01*
X107933815Y-71850186D01*
X107932355Y-71863641D01*
X107930220Y-71876816D01*
X107927412Y-71889713D01*
X107923929Y-71902330D01*
X107919772Y-71914669D01*
X107914942Y-71926728D01*
X107909437Y-71938508D01*
X107903258Y-71950009D01*
X107896405Y-71961231D01*
X107891473Y-71968519D01*
X107883666Y-71979076D01*
X107875370Y-71989182D01*
X107866584Y-71998837D01*
X107857309Y-72008041D01*
X107847545Y-72016794D01*
X107837291Y-72025097D01*
X107826548Y-72032949D01*
X107815315Y-72040350D01*
X107803592Y-72047300D01*
X107791381Y-72053799D01*
X107796233Y-72055922D01*
X107805739Y-72060352D01*
X107814982Y-72065031D01*
X107823962Y-72069958D01*
X107832678Y-72075133D01*
X107841131Y-72080556D01*
X107849321Y-72086227D01*
X107857248Y-72092146D01*
X107864911Y-72098313D01*
X107872311Y-72104728D01*
X107882917Y-72114816D01*
X107892930Y-72125462D01*
X107902351Y-72136666D01*
X107908303Y-72144446D01*
X107913991Y-72152473D01*
X107919344Y-72160655D01*
X107926726Y-72173158D01*
X107933332Y-72185935D01*
X107939160Y-72198986D01*
X107944211Y-72212313D01*
X107948485Y-72225914D01*
X107951982Y-72239790D01*
X107954702Y-72253941D01*
X107956645Y-72268367D01*
X107957508Y-72278136D01*
X107958026Y-72288028D01*
X107958199Y-72298042D01*
X107957859Y-72313929D01*
X107956840Y-72329412D01*
X107955142Y-72344490D01*
X107952764Y-72359164D01*
X107949707Y-72373433D01*
X107945971Y-72387298D01*
X107941556Y-72400758D01*
X107936461Y-72413813D01*
X107930687Y-72426464D01*
X107924234Y-72438711D01*
X107917101Y-72450553D01*
X107909289Y-72461990D01*
X107900798Y-72473023D01*
X107891627Y-72483651D01*
X107881777Y-72493875D01*
X107871248Y-72503695D01*
X107860156Y-72513011D01*
X107848618Y-72521727D01*
X107836633Y-72529841D01*
X107824201Y-72537354D01*
X107811323Y-72544267D01*
X107797998Y-72550578D01*
X107784227Y-72556288D01*
X107770010Y-72561397D01*
X107755345Y-72565905D01*
X107740235Y-72569812D01*
X107724678Y-72573118D01*
X107708674Y-72575823D01*
X107692224Y-72577926D01*
X107675327Y-72579429D01*
X107657984Y-72580331D01*
X107640195Y-72580631D01*
X107622551Y-72580332D01*
X107605340Y-72579437D01*
X107588563Y-72577943D01*
X107572219Y-72575853D01*
X107556308Y-72573165D01*
X107540830Y-72569881D01*
X107525785Y-72565998D01*
X107511173Y-72561519D01*
X107496995Y-72556442D01*
X107483249Y-72550769D01*
X107469937Y-72544497D01*
X107457058Y-72537629D01*
X107444612Y-72530163D01*
X107432600Y-72522101D01*
X107421020Y-72513440D01*
X107409873Y-72504183D01*
X107399256Y-72494390D01*
X107389323Y-72484186D01*
X107380075Y-72473569D01*
X107371512Y-72462540D01*
X107363634Y-72451098D01*
X107356442Y-72439245D01*
X107349934Y-72426979D01*
X107344111Y-72414302D01*
X107338973Y-72401212D01*
X107334521Y-72387710D01*
X107330753Y-72373796D01*
X107327671Y-72359469D01*
X107325273Y-72344731D01*
X107323560Y-72329580D01*
X107322533Y-72314017D01*
X107322190Y-72298042D01*
X107322242Y-72295111D01*
X107449197Y-72295111D01*
X107449246Y-72300328D01*
X107449643Y-72310556D01*
X107450437Y-72320509D01*
X107452372Y-72334923D01*
X107455200Y-72348719D01*
X107458921Y-72361896D01*
X107463534Y-72374456D01*
X107469041Y-72386397D01*
X107475441Y-72397720D01*
X107482734Y-72408425D01*
X107490920Y-72418511D01*
X107499999Y-72427979D01*
X107503212Y-72430985D01*
X107513303Y-72439428D01*
X107524072Y-72447013D01*
X107535519Y-72453739D01*
X107547645Y-72459607D01*
X107560449Y-72464616D01*
X107573932Y-72468766D01*
X107588093Y-72472057D01*
X107597910Y-72473775D01*
X107608029Y-72475110D01*
X107618449Y-72476065D01*
X107629171Y-72476637D01*
X107640195Y-72476828D01*
X107645774Y-72476781D01*
X107656702Y-72476403D01*
X107667322Y-72475647D01*
X107677636Y-72474514D01*
X107687642Y-72473002D01*
X107697341Y-72471113D01*
X107711314Y-72467571D01*
X107724595Y-72463179D01*
X107737186Y-72457937D01*
X107749085Y-72451845D01*
X107760292Y-72444903D01*
X107770809Y-72437110D01*
X107780634Y-72428468D01*
X107786756Y-72422252D01*
X107795199Y-72412402D01*
X107802753Y-72401922D01*
X107809419Y-72390810D01*
X107815195Y-72379067D01*
X107820083Y-72366693D01*
X107824083Y-72353687D01*
X107827193Y-72340051D01*
X107829415Y-72325784D01*
X107830402Y-72315921D01*
X107830995Y-72305779D01*
X107831192Y-72295355D01*
X107830990Y-72284890D01*
X107830383Y-72274683D01*
X107829372Y-72264732D01*
X107827956Y-72255040D01*
X107825074Y-72240984D01*
X107821281Y-72227508D01*
X107816579Y-72214612D01*
X107810966Y-72202295D01*
X107804443Y-72190558D01*
X107797010Y-72179400D01*
X107788666Y-72168822D01*
X107779413Y-72158824D01*
X107769362Y-72149526D01*
X107758719Y-72141144D01*
X107747483Y-72133675D01*
X107735655Y-72127122D01*
X107723235Y-72121482D01*
X107710222Y-72116758D01*
X107696616Y-72112947D01*
X107682418Y-72110051D01*
X107672623Y-72108629D01*
X107662566Y-72107613D01*
X107652244Y-72107003D01*
X107641660Y-72106800D01*
X107631041Y-72107005D01*
X107620678Y-72107620D01*
X107610571Y-72108646D01*
X107600719Y-72110082D01*
X107586421Y-72113005D01*
X107572698Y-72116851D01*
X107559550Y-72121620D01*
X107546978Y-72127313D01*
X107534981Y-72133928D01*
X107523559Y-72141466D01*
X107512713Y-72149928D01*
X107502442Y-72159312D01*
X107495994Y-72165996D01*
X107487102Y-72176474D01*
X107479147Y-72187492D01*
X107472127Y-72199051D01*
X107466044Y-72211151D01*
X107460896Y-72223792D01*
X107456684Y-72236974D01*
X107453408Y-72250697D01*
X107451068Y-72264961D01*
X107450029Y-72274770D01*
X107449405Y-72284821D01*
X107449197Y-72295111D01*
X107322242Y-72295111D01*
X107322369Y-72287942D01*
X107322904Y-72277976D01*
X107323796Y-72268143D01*
X107325803Y-72253645D01*
X107328613Y-72239447D01*
X107332226Y-72225549D01*
X107336642Y-72211952D01*
X107341860Y-72198656D01*
X107347882Y-72185660D01*
X107354706Y-72172964D01*
X107362333Y-72160570D01*
X107367864Y-72152473D01*
X107373700Y-72144534D01*
X107379790Y-72136838D01*
X107386133Y-72129384D01*
X107392731Y-72122172D01*
X107399582Y-72115202D01*
X107406687Y-72108475D01*
X107414046Y-72101990D01*
X107421658Y-72095748D01*
X107429525Y-72089748D01*
X107437645Y-72083990D01*
X107446019Y-72078474D01*
X107454646Y-72073201D01*
X107463528Y-72068170D01*
X107472663Y-72063382D01*
X107482052Y-72058836D01*
X107491695Y-72054532D01*
X107483407Y-72050249D01*
X107471379Y-72043449D01*
X107459836Y-72036198D01*
X107448779Y-72028497D01*
X107438207Y-72020345D01*
X107428119Y-72011742D01*
X107418517Y-72002688D01*
X107409401Y-71993183D01*
X107400769Y-71983227D01*
X107392622Y-71972821D01*
X107384961Y-71961964D01*
X107380169Y-71954511D01*
X107373562Y-71943088D01*
X107367650Y-71931372D01*
X107362434Y-71919365D01*
X107357913Y-71907067D01*
X107354087Y-71894476D01*
X107350958Y-71881593D01*
X107348523Y-71868418D01*
X107346784Y-71854951D01*
X107345741Y-71841193D01*
X107345441Y-71829096D01*
X107472644Y-71829096D01*
X107472822Y-71838658D01*
X107473759Y-71852570D01*
X107475498Y-71865961D01*
X107478041Y-71878833D01*
X107481386Y-71891186D01*
X107485534Y-71903019D01*
X107490485Y-71914333D01*
X107496239Y-71925127D01*
X107502795Y-71935402D01*
X107510155Y-71945157D01*
X107518317Y-71954392D01*
X107524146Y-71960189D01*
X107533336Y-71968184D01*
X107543062Y-71975336D01*
X107553325Y-71981647D01*
X107564125Y-71987117D01*
X107575462Y-71991745D01*
X107587335Y-71995532D01*
X107599745Y-71998477D01*
X107612691Y-72000581D01*
X107626175Y-72001843D01*
X107640195Y-72002264D01*
X107649601Y-72002077D01*
X107663263Y-72001095D01*
X107676388Y-71999272D01*
X107688977Y-71996607D01*
X107701029Y-71993101D01*
X107712545Y-71988753D01*
X107723523Y-71983564D01*
X107733965Y-71977533D01*
X107743871Y-71970661D01*
X107753240Y-71962948D01*
X107762072Y-71954392D01*
X107767602Y-71948292D01*
X107775230Y-71938705D01*
X107782054Y-71928594D01*
X107788075Y-71917960D01*
X107793294Y-71906801D01*
X107797709Y-71895119D01*
X107801322Y-71882913D01*
X107804132Y-71870183D01*
X107806139Y-71856930D01*
X107807344Y-71843153D01*
X107807745Y-71828852D01*
X107807564Y-71818848D01*
X107806612Y-71804340D01*
X107804845Y-71790429D01*
X107802262Y-71777115D01*
X107798863Y-71764397D01*
X107794648Y-71752276D01*
X107789618Y-71740752D01*
X107783772Y-71729825D01*
X107777110Y-71719495D01*
X107769632Y-71709761D01*
X107761339Y-71700624D01*
X107755428Y-71694916D01*
X107746145Y-71687044D01*
X107736365Y-71680001D01*
X107726087Y-71673786D01*
X107715311Y-71668400D01*
X107704036Y-71663843D01*
X107692264Y-71660114D01*
X107679994Y-71657214D01*
X107667225Y-71655142D01*
X107653959Y-71653900D01*
X107640195Y-71653485D01*
X107631196Y-71653677D01*
X107618070Y-71654684D01*
X107605390Y-71656553D01*
X107593157Y-71659286D01*
X107581370Y-71662882D01*
X107570030Y-71667340D01*
X107559136Y-71672662D01*
X107548689Y-71678847D01*
X107538689Y-71685894D01*
X107529135Y-71693805D01*
X107520027Y-71702578D01*
X107514289Y-71708797D01*
X107506377Y-71718547D01*
X107499297Y-71728804D01*
X107493050Y-71739567D01*
X107487636Y-71750837D01*
X107483055Y-71762614D01*
X107479307Y-71774897D01*
X107476392Y-71787687D01*
X107474310Y-71800983D01*
X107473060Y-71814786D01*
X107472644Y-71829096D01*
X107345441Y-71829096D01*
X107345393Y-71827142D01*
X107345712Y-71811351D01*
X107346668Y-71795974D01*
X107348261Y-71781011D01*
X107350492Y-71766463D01*
X107353360Y-71752328D01*
X107356865Y-71738608D01*
X107361008Y-71725301D01*
X107365788Y-71712409D01*
X107371205Y-71699930D01*
X107377259Y-71687866D01*
X107383951Y-71676216D01*
X107391281Y-71664980D01*
X107399247Y-71654158D01*
X107407851Y-71643750D01*
X107417092Y-71633756D01*
X107426970Y-71624176D01*
X107437335Y-71615067D01*
X107448094Y-71606545D01*
X107459248Y-71598611D01*
X107470797Y-71591264D01*
X107482741Y-71584506D01*
X107495080Y-71578335D01*
X107507814Y-71572751D01*
X107520943Y-71567756D01*
X107534467Y-71563348D01*
X107548386Y-71559528D01*
X107562700Y-71556296D01*
X107577409Y-71553651D01*
X107592513Y-71551594D01*
X107608012Y-71550125D01*
X107623906Y-71549243D01*
X107640195Y-71548949D01*
X107656571Y-71549243D01*
G37*
G36*
X106748952Y-72565000D02*
G01*
X106876691Y-72565000D01*
X106876691Y-71725048D01*
X107132902Y-71820792D01*
X107132902Y-71705265D01*
X106768736Y-71564581D01*
X106748952Y-71564581D01*
X106748952Y-72565000D01*
G37*
G36*
X105725819Y-72565000D02*
G01*
X106381123Y-72565000D01*
X106381123Y-72473653D01*
X106034786Y-72087993D01*
X106025356Y-72077191D01*
X106016300Y-72066645D01*
X106007618Y-72056354D01*
X105999310Y-72046319D01*
X105991376Y-72036540D01*
X105983816Y-72027016D01*
X105976630Y-72017749D01*
X105969818Y-72008736D01*
X105963380Y-71999980D01*
X105957315Y-71991479D01*
X105951625Y-71983234D01*
X105943791Y-71971346D01*
X105936799Y-71960033D01*
X105930648Y-71949295D01*
X105928785Y-71945844D01*
X105923547Y-71935551D01*
X105918824Y-71925190D01*
X105914617Y-71914760D01*
X105910925Y-71904262D01*
X105907748Y-71893694D01*
X105905086Y-71883058D01*
X105902939Y-71872353D01*
X105901308Y-71861580D01*
X105900191Y-71850738D01*
X105899590Y-71839827D01*
X105899476Y-71832515D01*
X105899892Y-71818062D01*
X105901142Y-71804102D01*
X105903224Y-71790636D01*
X105906139Y-71777664D01*
X105909887Y-71765185D01*
X105914468Y-71753200D01*
X105919882Y-71741709D01*
X105926129Y-71730712D01*
X105933208Y-71720208D01*
X105941121Y-71710198D01*
X105946859Y-71703799D01*
X105956022Y-71694808D01*
X105965744Y-71686700D01*
X105976023Y-71679477D01*
X105986861Y-71673139D01*
X105998257Y-71667685D01*
X106010211Y-71663116D01*
X106022723Y-71659431D01*
X106035794Y-71656630D01*
X106049422Y-71654714D01*
X106063609Y-71653682D01*
X106073377Y-71653485D01*
X106085057Y-71653696D01*
X106096408Y-71654329D01*
X106107428Y-71655383D01*
X106118119Y-71656859D01*
X106128479Y-71658756D01*
X106138509Y-71661076D01*
X106148209Y-71663817D01*
X106157579Y-71666980D01*
X106171015Y-71672514D01*
X106183709Y-71678998D01*
X106195659Y-71686431D01*
X106206867Y-71694812D01*
X106217332Y-71704142D01*
X106220655Y-71707463D01*
X106230040Y-71717911D01*
X106238501Y-71729107D01*
X106246039Y-71741050D01*
X106252655Y-71753739D01*
X106258347Y-71767176D01*
X106261629Y-71776549D01*
X106264501Y-71786254D01*
X106266962Y-71796290D01*
X106269013Y-71806659D01*
X106270654Y-71817360D01*
X106271885Y-71828393D01*
X106272706Y-71839758D01*
X106273116Y-71851455D01*
X106273167Y-71857428D01*
X106400174Y-71857428D01*
X106399826Y-71840384D01*
X106398784Y-71823753D01*
X106397048Y-71807534D01*
X106394617Y-71791727D01*
X106391491Y-71776332D01*
X106387671Y-71761349D01*
X106383157Y-71746778D01*
X106377947Y-71732620D01*
X106372044Y-71718874D01*
X106365445Y-71705539D01*
X106358152Y-71692617D01*
X106350165Y-71680108D01*
X106341483Y-71668010D01*
X106332106Y-71656325D01*
X106322035Y-71645051D01*
X106311269Y-71634190D01*
X106299921Y-71623868D01*
X106288104Y-71614212D01*
X106275818Y-71605221D01*
X106263062Y-71596897D01*
X106249836Y-71589239D01*
X106236142Y-71582246D01*
X106221977Y-71575920D01*
X106207344Y-71570259D01*
X106192241Y-71565265D01*
X106176668Y-71560936D01*
X106160627Y-71557274D01*
X106144115Y-71554277D01*
X106127135Y-71551946D01*
X106109685Y-71550281D01*
X106091765Y-71549282D01*
X106073377Y-71548949D01*
X106056172Y-71549236D01*
X106039423Y-71550098D01*
X106023130Y-71551534D01*
X106007294Y-71553544D01*
X105991913Y-71556129D01*
X105976988Y-71559288D01*
X105962520Y-71563021D01*
X105948507Y-71567329D01*
X105934951Y-71572211D01*
X105921851Y-71577667D01*
X105909206Y-71583698D01*
X105897018Y-71590303D01*
X105885286Y-71597482D01*
X105874010Y-71605236D01*
X105863189Y-71613564D01*
X105852825Y-71622466D01*
X105843006Y-71631815D01*
X105833820Y-71641544D01*
X105825268Y-71651652D01*
X105817349Y-71662141D01*
X105810064Y-71673008D01*
X105803412Y-71684256D01*
X105797394Y-71695883D01*
X105792009Y-71707890D01*
X105787258Y-71720277D01*
X105783140Y-71733043D01*
X105779656Y-71746190D01*
X105776805Y-71759716D01*
X105774587Y-71773621D01*
X105773004Y-71787907D01*
X105772053Y-71802572D01*
X105771737Y-71817616D01*
X105772472Y-71836338D01*
X105774679Y-71855501D01*
X105776334Y-71865247D01*
X105778357Y-71875104D01*
X105780748Y-71885071D01*
X105783506Y-71895148D01*
X105786632Y-71905336D01*
X105790126Y-71915633D01*
X105793988Y-71926041D01*
X105798218Y-71936559D01*
X105802815Y-71947187D01*
X105807781Y-71957925D01*
X105813114Y-71968774D01*
X105818815Y-71979733D01*
X105824883Y-71990802D01*
X105831320Y-72001981D01*
X105838124Y-72013270D01*
X105845296Y-72024669D01*
X105852836Y-72036179D01*
X105860743Y-72047799D01*
X105869019Y-72059529D01*
X105877662Y-72071369D01*
X105886673Y-72083320D01*
X105896052Y-72095381D01*
X105905798Y-72107551D01*
X105915913Y-72119833D01*
X105926395Y-72132224D01*
X105937245Y-72144725D01*
X105948462Y-72157337D01*
X105960048Y-72170059D01*
X106227738Y-72461196D01*
X105725819Y-72461196D01*
X105725819Y-72565000D01*
G37*
G36*
X105562665Y-72565000D02*
G01*
X105215596Y-72565000D01*
X105195971Y-72564696D01*
X105176910Y-72563786D01*
X105158411Y-72562269D01*
X105140476Y-72560145D01*
X105123103Y-72557415D01*
X105106293Y-72554077D01*
X105090046Y-72550133D01*
X105074362Y-72545582D01*
X105059241Y-72540424D01*
X105044683Y-72534660D01*
X105030688Y-72528289D01*
X105017255Y-72521311D01*
X105004386Y-72513726D01*
X104992079Y-72505534D01*
X104980336Y-72496736D01*
X104969155Y-72487330D01*
X104958566Y-72477395D01*
X104948661Y-72467005D01*
X104939439Y-72456161D01*
X104930900Y-72444863D01*
X104923044Y-72433110D01*
X104915872Y-72420904D01*
X104909382Y-72408243D01*
X104903576Y-72395129D01*
X104898452Y-72381560D01*
X104894012Y-72367537D01*
X104890255Y-72353060D01*
X104887181Y-72338128D01*
X104884790Y-72322743D01*
X104883082Y-72306904D01*
X104882057Y-72290610D01*
X104881746Y-72275327D01*
X105014340Y-72275327D01*
X105014392Y-72280604D01*
X105014808Y-72290942D01*
X105015640Y-72300994D01*
X105017667Y-72315536D01*
X105020631Y-72329433D01*
X105024531Y-72342687D01*
X105029367Y-72355297D01*
X105035138Y-72367262D01*
X105041846Y-72378584D01*
X105049490Y-72389261D01*
X105058069Y-72399295D01*
X105067585Y-72408684D01*
X105077909Y-72417327D01*
X105088917Y-72425119D01*
X105100607Y-72432061D01*
X105112979Y-72438154D01*
X105126035Y-72443396D01*
X105139773Y-72447788D01*
X105149311Y-72450244D01*
X105159152Y-72452321D01*
X105169296Y-72454022D01*
X105179745Y-72455344D01*
X105190496Y-72456289D01*
X105201551Y-72456855D01*
X105212909Y-72457044D01*
X105430774Y-72457044D01*
X105430774Y-72092390D01*
X105210955Y-72092390D01*
X105198859Y-72092568D01*
X105187146Y-72093104D01*
X105175818Y-72093997D01*
X105164873Y-72095248D01*
X105154313Y-72096856D01*
X105144137Y-72098821D01*
X105134344Y-72101143D01*
X105115912Y-72106860D01*
X105099015Y-72114006D01*
X105083654Y-72122581D01*
X105069830Y-72132586D01*
X105057541Y-72144020D01*
X105046789Y-72156882D01*
X105037573Y-72171174D01*
X105029892Y-72186896D01*
X105023748Y-72204046D01*
X105019140Y-72222626D01*
X105017412Y-72232451D01*
X105016068Y-72242634D01*
X105015108Y-72253175D01*
X105014532Y-72264073D01*
X105014340Y-72275327D01*
X104881746Y-72275327D01*
X104881716Y-72273862D01*
X104881900Y-72262876D01*
X104882452Y-72252082D01*
X104883373Y-72241482D01*
X104884662Y-72231074D01*
X104886319Y-72220858D01*
X104888345Y-72210836D01*
X104890738Y-72201006D01*
X104893501Y-72191369D01*
X104896631Y-72181925D01*
X104900129Y-72172673D01*
X104903996Y-72163614D01*
X104908231Y-72154748D01*
X104912835Y-72146074D01*
X104917806Y-72137594D01*
X104923146Y-72129306D01*
X104928855Y-72121210D01*
X104931834Y-72117236D01*
X104937992Y-72109529D01*
X104944414Y-72102144D01*
X104954546Y-72091672D01*
X104965274Y-72081926D01*
X104976599Y-72072905D01*
X104988521Y-72064609D01*
X105001040Y-72057039D01*
X105009717Y-72052396D01*
X105018660Y-72048075D01*
X105027867Y-72044076D01*
X105037340Y-72040400D01*
X105047079Y-72037047D01*
X105057082Y-72034016D01*
X105048586Y-72030258D01*
X105036268Y-72024272D01*
X105024460Y-72017865D01*
X105013164Y-72011037D01*
X105002378Y-72003789D01*
X104992104Y-71996119D01*
X104982340Y-71988029D01*
X104973087Y-71979518D01*
X104964345Y-71970587D01*
X104956114Y-71961235D01*
X104948394Y-71951461D01*
X104943573Y-71944713D01*
X104936925Y-71934359D01*
X104930977Y-71923725D01*
X104925728Y-71912812D01*
X104921179Y-71901620D01*
X104917330Y-71890149D01*
X104914181Y-71878399D01*
X104911732Y-71866369D01*
X104909982Y-71854061D01*
X104908932Y-71841474D01*
X104908583Y-71828607D01*
X104908593Y-71828119D01*
X105041206Y-71828119D01*
X105041410Y-71837159D01*
X105042476Y-71850271D01*
X105044458Y-71862847D01*
X105047354Y-71874886D01*
X105051164Y-71886389D01*
X105055889Y-71897355D01*
X105061528Y-71907784D01*
X105068082Y-71917677D01*
X105075550Y-71927032D01*
X105083933Y-71935852D01*
X105093230Y-71944134D01*
X105103244Y-71951729D01*
X105113867Y-71958577D01*
X105125099Y-71964678D01*
X105136942Y-71970032D01*
X105149394Y-71974638D01*
X105162456Y-71978498D01*
X105176127Y-71981611D01*
X105190408Y-71983976D01*
X105200268Y-71985138D01*
X105210398Y-71985968D01*
X105220799Y-71986466D01*
X105231472Y-71986632D01*
X105430774Y-71986632D01*
X105430774Y-71673025D01*
X105235624Y-71673025D01*
X105223546Y-71673169D01*
X105211860Y-71673601D01*
X105200564Y-71674321D01*
X105189660Y-71675330D01*
X105179147Y-71676626D01*
X105169026Y-71678211D01*
X105159295Y-71680084D01*
X105145432Y-71683433D01*
X105132450Y-71687431D01*
X105120348Y-71692077D01*
X105109126Y-71697372D01*
X105098784Y-71703314D01*
X105089322Y-71709905D01*
X105080723Y-71717211D01*
X105072970Y-71725298D01*
X105066063Y-71734167D01*
X105060002Y-71743817D01*
X105054786Y-71754248D01*
X105050416Y-71765461D01*
X105046892Y-71777455D01*
X105044214Y-71790231D01*
X105042381Y-71803788D01*
X105041394Y-71818126D01*
X105041206Y-71828119D01*
X104908593Y-71828119D01*
X104908903Y-71812524D01*
X104909865Y-71796940D01*
X104911468Y-71781856D01*
X104913712Y-71767272D01*
X104916597Y-71753188D01*
X104920123Y-71739604D01*
X104924290Y-71726520D01*
X104929099Y-71713935D01*
X104934549Y-71701851D01*
X104940639Y-71690267D01*
X104947371Y-71679182D01*
X104954744Y-71668598D01*
X104962759Y-71658513D01*
X104971414Y-71648929D01*
X104980710Y-71639844D01*
X104990648Y-71631259D01*
X104995856Y-71627157D01*
X105006746Y-71619343D01*
X105018267Y-71612050D01*
X105030420Y-71605278D01*
X105043205Y-71599027D01*
X105056621Y-71593297D01*
X105070669Y-71588088D01*
X105085348Y-71583399D01*
X105100659Y-71579232D01*
X105116602Y-71575585D01*
X105133176Y-71572460D01*
X105150382Y-71569855D01*
X105168219Y-71567771D01*
X105186688Y-71566209D01*
X105205789Y-71565167D01*
X105215576Y-71564841D01*
X105225521Y-71564646D01*
X105235624Y-71564581D01*
X105562665Y-71564581D01*
X105562665Y-72565000D01*
G37*
D11*
%TO.C,SCL~PullUp*%
D12*
G36*
X105314693Y-99678592D02*
G01*
X105405019Y-99768917D01*
X105998954Y-99174982D01*
X106112421Y-99423851D01*
X106194111Y-99342161D01*
X106036085Y-98985178D01*
X106022096Y-98971189D01*
X105314693Y-99678592D01*
G37*
G36*
X105358855Y-98382752D02*
G01*
X105374406Y-98383968D01*
X105389856Y-98386228D01*
X105405202Y-98389532D01*
X105420446Y-98393881D01*
X105435588Y-98399274D01*
X105450626Y-98405711D01*
X105465563Y-98413193D01*
X105480397Y-98421719D01*
X105495128Y-98431289D01*
X105509757Y-98441904D01*
X105524283Y-98453563D01*
X105538706Y-98466266D01*
X105545880Y-98473010D01*
X105553027Y-98480014D01*
X105560082Y-98487218D01*
X105566870Y-98494451D01*
X105579640Y-98509007D01*
X105591340Y-98523682D01*
X105601968Y-98538475D01*
X105611525Y-98553387D01*
X105620010Y-98568418D01*
X105627424Y-98583567D01*
X105633767Y-98598836D01*
X105639039Y-98614223D01*
X105643239Y-98629728D01*
X105646368Y-98645353D01*
X105648426Y-98661096D01*
X105649412Y-98676958D01*
X105649327Y-98692939D01*
X105648171Y-98709038D01*
X105645943Y-98725256D01*
X105642655Y-98741594D01*
X105638317Y-98758140D01*
X105632929Y-98774894D01*
X105626492Y-98791856D01*
X105619005Y-98809025D01*
X105610468Y-98826402D01*
X105605806Y-98835169D01*
X105600882Y-98843987D01*
X105595695Y-98852858D01*
X105590246Y-98861780D01*
X105584534Y-98870754D01*
X105578560Y-98879781D01*
X105572323Y-98888859D01*
X105565824Y-98897989D01*
X105559062Y-98907171D01*
X105552038Y-98916405D01*
X105544752Y-98925691D01*
X105537203Y-98935029D01*
X105529392Y-98944419D01*
X105521318Y-98953861D01*
X105512982Y-98963354D01*
X105504384Y-98972900D01*
X105495523Y-98982498D01*
X105486399Y-98992147D01*
X105477014Y-99001849D01*
X105467365Y-99011602D01*
X105346817Y-99132151D01*
X105337350Y-99141256D01*
X105327927Y-99150114D01*
X105318547Y-99158724D01*
X105309210Y-99167086D01*
X105299916Y-99175201D01*
X105290666Y-99183068D01*
X105281458Y-99190688D01*
X105272294Y-99198060D01*
X105263173Y-99205184D01*
X105254095Y-99212061D01*
X105245061Y-99218690D01*
X105236069Y-99225072D01*
X105227121Y-99231206D01*
X105218216Y-99237093D01*
X105209354Y-99242732D01*
X105200535Y-99248123D01*
X105191759Y-99253267D01*
X105183027Y-99258163D01*
X105165692Y-99267212D01*
X105148529Y-99275271D01*
X105131539Y-99282340D01*
X105114722Y-99288419D01*
X105098077Y-99293507D01*
X105081605Y-99297605D01*
X105065306Y-99300712D01*
X105057216Y-99301887D01*
X105041133Y-99303452D01*
X105025179Y-99303970D01*
X105009355Y-99303441D01*
X104993660Y-99301865D01*
X104978095Y-99299243D01*
X104962660Y-99295573D01*
X104947354Y-99290855D01*
X104932177Y-99285091D01*
X104917130Y-99278280D01*
X104902213Y-99270422D01*
X104887425Y-99261517D01*
X104872766Y-99251565D01*
X104858238Y-99240566D01*
X104843838Y-99228520D01*
X104829568Y-99215426D01*
X104822482Y-99208487D01*
X104815449Y-99201304D01*
X104808686Y-99194089D01*
X104795966Y-99179564D01*
X104784323Y-99164913D01*
X104773757Y-99150134D01*
X104764268Y-99135229D01*
X104755855Y-99120197D01*
X104748519Y-99105038D01*
X104742260Y-99089752D01*
X104737078Y-99074339D01*
X104732972Y-99058800D01*
X104729943Y-99043133D01*
X104727990Y-99027340D01*
X104727891Y-99025538D01*
X104844426Y-99025538D01*
X104845026Y-99035416D01*
X104846297Y-99045159D01*
X104848237Y-99054765D01*
X104850849Y-99064234D01*
X104854131Y-99073568D01*
X104858084Y-99082765D01*
X104862707Y-99091826D01*
X104868001Y-99100751D01*
X104873965Y-99109539D01*
X104880600Y-99118192D01*
X104887906Y-99126707D01*
X104895882Y-99135087D01*
X104904404Y-99143180D01*
X104913088Y-99150577D01*
X104921934Y-99157277D01*
X104930941Y-99163281D01*
X104940111Y-99168589D01*
X104949442Y-99173201D01*
X104958936Y-99177117D01*
X104968591Y-99180336D01*
X104978408Y-99182859D01*
X104988387Y-99184686D01*
X104998529Y-99185817D01*
X105008832Y-99186251D01*
X105019296Y-99185989D01*
X105029923Y-99185031D01*
X105040712Y-99183377D01*
X105051663Y-99181027D01*
X105062778Y-99177942D01*
X105074106Y-99174127D01*
X105085646Y-99169582D01*
X105097397Y-99164307D01*
X105109360Y-99158302D01*
X105121536Y-99151567D01*
X105133922Y-99144102D01*
X105146521Y-99135907D01*
X105159332Y-99126983D01*
X105172354Y-99117328D01*
X105185588Y-99106943D01*
X105199035Y-99095829D01*
X105212692Y-99083984D01*
X105226562Y-99071410D01*
X105240644Y-99058105D01*
X105247764Y-99051180D01*
X105254937Y-99044071D01*
X105399319Y-98899689D01*
X105412408Y-98886144D01*
X105424818Y-98872798D01*
X105436549Y-98859650D01*
X105447601Y-98846701D01*
X105457975Y-98833950D01*
X105467670Y-98821397D01*
X105476687Y-98809042D01*
X105485025Y-98796886D01*
X105492684Y-98784928D01*
X105499664Y-98773169D01*
X105505966Y-98761607D01*
X105511589Y-98750245D01*
X105516533Y-98739080D01*
X105520799Y-98728114D01*
X105524386Y-98717346D01*
X105527294Y-98706777D01*
X105529535Y-98696344D01*
X105531075Y-98686028D01*
X105531915Y-98675829D01*
X105532054Y-98665748D01*
X105531494Y-98655785D01*
X105530233Y-98645938D01*
X105528272Y-98636210D01*
X105525610Y-98626598D01*
X105522249Y-98617104D01*
X105518187Y-98607727D01*
X105513425Y-98598468D01*
X105507962Y-98589326D01*
X105501799Y-98580301D01*
X105494936Y-98571394D01*
X105487373Y-98562604D01*
X105479109Y-98553932D01*
X105470351Y-98545584D01*
X105461477Y-98537941D01*
X105452487Y-98531001D01*
X105443381Y-98524766D01*
X105434159Y-98519236D01*
X105424820Y-98514409D01*
X105415366Y-98510287D01*
X105405796Y-98506870D01*
X105396109Y-98504156D01*
X105386307Y-98502147D01*
X105376389Y-98500843D01*
X105366354Y-98500242D01*
X105356204Y-98500346D01*
X105345937Y-98501154D01*
X105335554Y-98502667D01*
X105325056Y-98504884D01*
X105314360Y-98507799D01*
X105303430Y-98511452D01*
X105292265Y-98515841D01*
X105280865Y-98520967D01*
X105269230Y-98526829D01*
X105257361Y-98533429D01*
X105245256Y-98540765D01*
X105232917Y-98548837D01*
X105220343Y-98557647D01*
X105207535Y-98567193D01*
X105194492Y-98577475D01*
X105181213Y-98588495D01*
X105167701Y-98600251D01*
X105153953Y-98612744D01*
X105139971Y-98625973D01*
X105132891Y-98632864D01*
X105125753Y-98639940D01*
X104977917Y-98787776D01*
X104964561Y-98801761D01*
X104951909Y-98815522D01*
X104939961Y-98829059D01*
X104928718Y-98842372D01*
X104918179Y-98855462D01*
X104908344Y-98868327D01*
X104899213Y-98880968D01*
X104890787Y-98893385D01*
X104883065Y-98905579D01*
X104876048Y-98917548D01*
X104869735Y-98929293D01*
X104864126Y-98940815D01*
X104859221Y-98952112D01*
X104855021Y-98963185D01*
X104851525Y-98974035D01*
X104848733Y-98984660D01*
X104846651Y-98995084D01*
X104845239Y-99005371D01*
X104844497Y-99015523D01*
X104844426Y-99025538D01*
X104727891Y-99025538D01*
X104727115Y-99011420D01*
X104727316Y-98995373D01*
X104728593Y-98979200D01*
X104730948Y-98962899D01*
X104732527Y-98954690D01*
X104736477Y-98938111D01*
X104741486Y-98921315D01*
X104747552Y-98904304D01*
X104754676Y-98887076D01*
X104762858Y-98869633D01*
X104767346Y-98860830D01*
X104772098Y-98851974D01*
X104777114Y-98843063D01*
X104782395Y-98834099D01*
X104787941Y-98825080D01*
X104793751Y-98816008D01*
X104799825Y-98806881D01*
X104806164Y-98797701D01*
X104812767Y-98788467D01*
X104819635Y-98779178D01*
X104826767Y-98769836D01*
X104834164Y-98760440D01*
X104841825Y-98750989D01*
X104849751Y-98741485D01*
X104857941Y-98731927D01*
X104866395Y-98722315D01*
X104875114Y-98712649D01*
X104884097Y-98702929D01*
X104893345Y-98693155D01*
X104902858Y-98683327D01*
X104912634Y-98673444D01*
X105029729Y-98556350D01*
X105039353Y-98547002D01*
X105048924Y-98537912D01*
X105058442Y-98529081D01*
X105067908Y-98520508D01*
X105077321Y-98512194D01*
X105086681Y-98504138D01*
X105095989Y-98496340D01*
X105105245Y-98488800D01*
X105114447Y-98481519D01*
X105123597Y-98474497D01*
X105132695Y-98467733D01*
X105141739Y-98461227D01*
X105150732Y-98454979D01*
X105159671Y-98448990D01*
X105168558Y-98443260D01*
X105177392Y-98437787D01*
X105186174Y-98432574D01*
X105194903Y-98427618D01*
X105212203Y-98418482D01*
X105229293Y-98410380D01*
X105246172Y-98403311D01*
X105262841Y-98397276D01*
X105279300Y-98392274D01*
X105295547Y-98388306D01*
X105311585Y-98385371D01*
X105327444Y-98383454D01*
X105343201Y-98382581D01*
X105358855Y-98382752D01*
G37*
G36*
X104588811Y-98461535D02*
G01*
X104585875Y-98577075D01*
X104399526Y-98763424D01*
X104489333Y-98853231D01*
X105240948Y-98101616D01*
X105151141Y-98011809D01*
X104697098Y-98465852D01*
X104707460Y-98359465D01*
X104718340Y-98021135D01*
X104609018Y-97911812D01*
X104591920Y-98337877D01*
X104054632Y-98418531D01*
X104160155Y-98524054D01*
X104588811Y-98461535D01*
G37*
D11*
%TO.C,SDA~PullUp*%
D12*
G36*
X130031592Y-93694306D02*
G01*
X130121917Y-93603980D01*
X129527982Y-93010045D01*
X129776851Y-92896578D01*
X129695161Y-92814888D01*
X129338178Y-92972914D01*
X129324189Y-92986903D01*
X130031592Y-93694306D01*
G37*
G36*
X129045939Y-93359672D02*
G01*
X129062038Y-93360828D01*
X129078256Y-93363056D01*
X129094594Y-93366344D01*
X129111140Y-93370682D01*
X129127894Y-93376070D01*
X129144856Y-93382507D01*
X129162025Y-93389994D01*
X129179402Y-93398531D01*
X129188169Y-93403193D01*
X129196987Y-93408117D01*
X129205858Y-93413304D01*
X129214780Y-93418753D01*
X129223754Y-93424465D01*
X129232781Y-93430439D01*
X129241859Y-93436676D01*
X129250989Y-93443175D01*
X129260171Y-93449937D01*
X129269405Y-93456961D01*
X129278691Y-93464247D01*
X129288029Y-93471796D01*
X129297419Y-93479607D01*
X129306861Y-93487681D01*
X129316354Y-93496017D01*
X129325900Y-93504615D01*
X129335498Y-93513476D01*
X129345147Y-93522600D01*
X129354849Y-93531985D01*
X129364602Y-93541634D01*
X129485151Y-93662182D01*
X129494256Y-93671649D01*
X129503114Y-93681072D01*
X129511724Y-93690452D01*
X129520086Y-93699789D01*
X129528201Y-93709083D01*
X129536068Y-93718333D01*
X129543688Y-93727541D01*
X129551060Y-93736705D01*
X129558184Y-93745826D01*
X129565061Y-93754904D01*
X129571690Y-93763938D01*
X129578072Y-93772930D01*
X129584206Y-93781878D01*
X129590093Y-93790783D01*
X129595732Y-93799645D01*
X129601123Y-93808464D01*
X129606267Y-93817240D01*
X129611163Y-93825972D01*
X129620212Y-93843307D01*
X129628271Y-93860470D01*
X129635340Y-93877460D01*
X129641419Y-93894277D01*
X129646507Y-93910922D01*
X129650605Y-93927394D01*
X129653712Y-93943693D01*
X129654887Y-93951783D01*
X129656452Y-93967866D01*
X129656970Y-93983820D01*
X129656441Y-93999644D01*
X129654865Y-94015339D01*
X129652243Y-94030904D01*
X129648573Y-94046339D01*
X129643855Y-94061645D01*
X129638091Y-94076822D01*
X129631280Y-94091869D01*
X129623422Y-94106786D01*
X129614517Y-94121574D01*
X129604565Y-94136233D01*
X129593566Y-94150761D01*
X129581520Y-94165161D01*
X129568426Y-94179431D01*
X129561487Y-94186517D01*
X129554304Y-94193550D01*
X129547089Y-94200313D01*
X129532564Y-94213033D01*
X129517913Y-94224676D01*
X129503134Y-94235242D01*
X129488229Y-94244731D01*
X129473197Y-94253144D01*
X129458038Y-94260480D01*
X129442752Y-94266739D01*
X129427339Y-94271921D01*
X129411800Y-94276027D01*
X129396133Y-94279056D01*
X129380340Y-94281009D01*
X129364420Y-94281884D01*
X129348373Y-94281683D01*
X129332200Y-94280406D01*
X129315899Y-94278051D01*
X129307690Y-94276472D01*
X129291111Y-94272522D01*
X129274315Y-94267513D01*
X129257304Y-94261447D01*
X129240076Y-94254323D01*
X129222633Y-94246141D01*
X129213830Y-94241653D01*
X129204974Y-94236901D01*
X129196063Y-94231885D01*
X129187099Y-94226604D01*
X129178080Y-94221058D01*
X129169008Y-94215248D01*
X129159881Y-94209174D01*
X129150701Y-94202835D01*
X129141467Y-94196232D01*
X129132178Y-94189364D01*
X129122836Y-94182232D01*
X129113440Y-94174835D01*
X129103989Y-94167174D01*
X129094485Y-94159248D01*
X129084927Y-94151058D01*
X129075315Y-94142604D01*
X129065649Y-94133885D01*
X129055929Y-94124902D01*
X129046155Y-94115654D01*
X129036327Y-94106141D01*
X129026444Y-94096365D01*
X128909350Y-93979270D01*
X128900002Y-93969646D01*
X128890912Y-93960075D01*
X128882081Y-93950557D01*
X128873508Y-93941091D01*
X128865194Y-93931678D01*
X128857138Y-93922318D01*
X128849340Y-93913010D01*
X128841800Y-93903754D01*
X128834519Y-93894552D01*
X128827497Y-93885402D01*
X128820733Y-93876304D01*
X128814227Y-93867260D01*
X128807979Y-93858267D01*
X128801990Y-93849328D01*
X128796260Y-93840441D01*
X128790787Y-93831607D01*
X128785574Y-93822825D01*
X128780618Y-93814096D01*
X128771482Y-93796796D01*
X128763380Y-93779706D01*
X128756311Y-93762827D01*
X128750276Y-93746158D01*
X128745274Y-93729699D01*
X128741306Y-93713452D01*
X128738371Y-93697414D01*
X128736454Y-93681555D01*
X128735581Y-93665798D01*
X128735752Y-93650144D01*
X128736338Y-93642645D01*
X128853242Y-93642645D01*
X128853346Y-93652795D01*
X128854154Y-93663062D01*
X128855667Y-93673445D01*
X128857884Y-93683943D01*
X128860799Y-93694639D01*
X128864452Y-93705569D01*
X128868841Y-93716734D01*
X128873967Y-93728134D01*
X128879829Y-93739769D01*
X128886429Y-93751638D01*
X128893765Y-93763743D01*
X128901837Y-93776082D01*
X128910647Y-93788656D01*
X128920193Y-93801464D01*
X128930475Y-93814507D01*
X128941495Y-93827786D01*
X128953251Y-93841298D01*
X128965744Y-93855046D01*
X128978973Y-93869028D01*
X128985864Y-93876108D01*
X128992940Y-93883246D01*
X129140776Y-94031082D01*
X129154761Y-94044438D01*
X129168522Y-94057090D01*
X129182059Y-94069038D01*
X129195372Y-94080281D01*
X129208462Y-94090820D01*
X129221327Y-94100655D01*
X129233968Y-94109786D01*
X129246385Y-94118212D01*
X129258579Y-94125934D01*
X129270548Y-94132951D01*
X129282293Y-94139264D01*
X129293815Y-94144873D01*
X129305112Y-94149778D01*
X129316185Y-94153978D01*
X129327035Y-94157474D01*
X129337660Y-94160266D01*
X129348084Y-94162348D01*
X129358371Y-94163760D01*
X129368523Y-94164502D01*
X129378538Y-94164573D01*
X129388416Y-94163973D01*
X129398159Y-94162702D01*
X129407765Y-94160762D01*
X129417234Y-94158150D01*
X129426568Y-94154868D01*
X129435765Y-94150915D01*
X129444826Y-94146292D01*
X129453751Y-94140998D01*
X129462539Y-94135034D01*
X129471192Y-94128399D01*
X129479707Y-94121093D01*
X129488087Y-94113117D01*
X129496180Y-94104595D01*
X129503577Y-94095911D01*
X129510277Y-94087065D01*
X129516281Y-94078058D01*
X129521589Y-94068888D01*
X129526201Y-94059557D01*
X129530117Y-94050063D01*
X129533336Y-94040408D01*
X129535859Y-94030591D01*
X129537686Y-94020612D01*
X129538817Y-94010470D01*
X129539251Y-94000167D01*
X129538989Y-93989703D01*
X129538031Y-93979076D01*
X129536377Y-93968287D01*
X129534027Y-93957336D01*
X129530942Y-93946221D01*
X129527127Y-93934893D01*
X129522582Y-93923353D01*
X129517307Y-93911602D01*
X129511302Y-93899639D01*
X129504567Y-93887463D01*
X129497102Y-93875077D01*
X129488907Y-93862478D01*
X129479983Y-93849667D01*
X129470328Y-93836645D01*
X129459943Y-93823411D01*
X129448829Y-93809964D01*
X129436984Y-93796307D01*
X129424410Y-93782437D01*
X129411105Y-93768355D01*
X129404180Y-93761235D01*
X129397071Y-93754062D01*
X129252689Y-93609680D01*
X129239144Y-93596591D01*
X129225798Y-93584181D01*
X129212650Y-93572450D01*
X129199701Y-93561398D01*
X129186950Y-93551024D01*
X129174397Y-93541329D01*
X129162042Y-93532312D01*
X129149886Y-93523974D01*
X129137928Y-93516315D01*
X129126169Y-93509335D01*
X129114607Y-93503033D01*
X129103245Y-93497410D01*
X129092080Y-93492466D01*
X129081114Y-93488200D01*
X129070346Y-93484613D01*
X129059777Y-93481705D01*
X129049344Y-93479464D01*
X129039028Y-93477924D01*
X129028829Y-93477084D01*
X129018748Y-93476945D01*
X129008785Y-93477505D01*
X128998938Y-93478766D01*
X128989210Y-93480727D01*
X128979598Y-93483389D01*
X128970104Y-93486750D01*
X128960727Y-93490812D01*
X128951468Y-93495574D01*
X128942326Y-93501037D01*
X128933301Y-93507200D01*
X128924394Y-93514063D01*
X128915604Y-93521626D01*
X128906932Y-93529890D01*
X128898584Y-93538648D01*
X128890941Y-93547522D01*
X128884001Y-93556512D01*
X128877766Y-93565618D01*
X128872236Y-93574840D01*
X128867409Y-93584179D01*
X128863287Y-93593633D01*
X128859870Y-93603203D01*
X128857156Y-93612890D01*
X128855147Y-93622692D01*
X128853843Y-93632610D01*
X128853242Y-93642645D01*
X128736338Y-93642645D01*
X128736968Y-93634593D01*
X128739228Y-93619143D01*
X128742532Y-93603797D01*
X128746881Y-93588553D01*
X128752274Y-93573411D01*
X128758711Y-93558373D01*
X128766193Y-93543436D01*
X128774719Y-93528602D01*
X128784289Y-93513871D01*
X128794904Y-93499242D01*
X128806563Y-93484716D01*
X128819266Y-93470293D01*
X128826010Y-93463119D01*
X128833014Y-93455972D01*
X128840218Y-93448917D01*
X128847451Y-93442129D01*
X128862007Y-93429359D01*
X128876682Y-93417659D01*
X128891475Y-93407031D01*
X128906387Y-93397474D01*
X128921418Y-93388989D01*
X128936567Y-93381575D01*
X128951836Y-93375232D01*
X128967223Y-93369960D01*
X128982728Y-93365760D01*
X128998353Y-93362631D01*
X129014096Y-93360573D01*
X129029958Y-93359587D01*
X129045939Y-93359672D01*
G37*
G36*
X128814535Y-94420188D02*
G01*
X128930075Y-94423124D01*
X129116424Y-94609473D01*
X129206231Y-94519666D01*
X128454616Y-93768051D01*
X128364809Y-93857858D01*
X128818852Y-94311901D01*
X128712465Y-94301539D01*
X128374135Y-94290659D01*
X128264812Y-94399981D01*
X128690877Y-94417079D01*
X128771531Y-94954367D01*
X128877054Y-94848844D01*
X128814535Y-94420188D01*
G37*
%TD*%
D13*
%TO.P,Capacitor,1*%
%TO.N,+3V3*%
X119550000Y-81500000D03*
%TO.P,Capacitor,2*%
%TO.N,GND*%
X121450000Y-81500000D03*
%TD*%
D14*
%TO.P,D5,1,VDD*%
%TO.N,+3V3*%
X111251999Y-81898999D03*
%TO.P,D5,2,DOUT*%
%TO.N,unconnected-(D5-Pad2)*%
X111251999Y-85200999D03*
%TO.P,D5,3,VSS*%
%TO.N,GND*%
X117347999Y-85149999D03*
%TO.P,D5,4,DIN*%
%TO.N,Net-(D4-Pad2)*%
X117347999Y-81949999D03*
%TD*%
%TO.P,D1,1,VDD*%
%TO.N,+3V3*%
X108965999Y-88264999D03*
%TO.P,D1,2,DOUT*%
%TO.N,Net-(D1-Pad2)*%
X108965999Y-91566999D03*
%TO.P,D1,3,VSS*%
%TO.N,GND*%
X115061999Y-91515999D03*
%TO.P,D1,4,DIN*%
%TO.N,LED_DATA*%
X115061999Y-88315999D03*
%TD*%
D15*
%TO.P,D3,1,VDD*%
%TO.N,+3V3*%
X108650999Y-73951999D03*
%TO.P,D3,2,DOUT*%
%TO.N,Net-(D3-Pad2)*%
X105348999Y-73951999D03*
%TO.P,D3,3,VSS*%
%TO.N,GND*%
X105399999Y-80047999D03*
%TO.P,D3,4,DIN*%
%TO.N,Net-(D2-Pad2)*%
X108599999Y-80047999D03*
%TD*%
D16*
%TO.P,EEPROM,8,VCC*%
%TO.N,+3V3*%
X109525000Y-96095000D03*
%TO.P,EEPROM,7,WP*%
%TO.N,unconnected-(EEPROM1-Pad7)*%
X109525000Y-97365000D03*
%TO.P,EEPROM,6,SCL*%
%TO.N,/SCL*%
X109525000Y-98635000D03*
%TO.P,EEPROM,5,SDA*%
%TO.N,/SDA*%
X109525000Y-99905000D03*
%TO.P,EEPROM,4,GND*%
%TO.N,GND*%
X114475000Y-99905000D03*
%TO.P,EEPROM,3,A2*%
X114475000Y-98635000D03*
%TO.P,EEPROM,2,A1*%
X114475000Y-97365000D03*
%TO.P,EEPROM,1,A0*%
X114475000Y-96095000D03*
%TD*%
D14*
%TO.P,D4,1,VDD*%
%TO.N,+3V3*%
X110951999Y-76072999D03*
%TO.P,D4,2,DOUT*%
%TO.N,Net-(D4-Pad2)*%
X110951999Y-79374999D03*
%TO.P,D4,3,VSS*%
%TO.N,GND*%
X117047999Y-79323999D03*
%TO.P,D4,4,DIN*%
%TO.N,Net-(D3-Pad2)*%
X117047999Y-76123999D03*
%TD*%
D15*
%TO.P,D2,1,VDD*%
%TO.N,+3V3*%
X106650999Y-82951999D03*
%TO.P,D2,2,DOUT*%
%TO.N,Net-(D2-Pad2)*%
X103348999Y-82951999D03*
%TO.P,D2,3,VSS*%
%TO.N,GND*%
X103399999Y-89047999D03*
%TO.P,D2,4,DIN*%
%TO.N,Net-(D1-Pad2)*%
X106599999Y-89047999D03*
%TD*%
D17*
%TO.P,SCL~PullUp,1*%
%TO.N,/SCL*%
X107250000Y-98162500D03*
%TO.P,SCL~PullUp,2*%
%TO.N,+3V3*%
X107250000Y-96337500D03*
%TD*%
D18*
%TO.P,SDA~PullUp,1*%
%TO.N,/SDA*%
X125587500Y-90500000D03*
%TO.P,SDA~PullUp,2*%
%TO.N,+3V3*%
X127412500Y-90500000D03*
%TD*%
D19*
%TO.P,Header,1,3.3V*%
%TO.N,+3V3*%
X117959999Y-88974999D03*
%TO.P,Header,2,GND*%
%TO.N,GND*%
X117959999Y-94024999D03*
%TO.P,Header,3,SDA*%
%TO.N,/SDA*%
X120499999Y-88974999D03*
%TO.P,Header,4,SCL*%
%TO.N,/SCL*%
X120499999Y-94024999D03*
%TO.P,Header,5,IO1*%
%TO.N,LED_DATA*%
X123039999Y-88974999D03*
%TO.P,Header,6,IO2*%
%TO.N,unconnected-(Header1-Pad6)*%
X123039999Y-94024999D03*
%TD*%
D20*
%TO.N,Net-(D1-Pad2)*%
X106600000Y-89201000D02*
X108966000Y-91567000D01*
X106600000Y-89048000D02*
X106600000Y-89201000D01*
%TO.N,/SDA*%
X121531618Y-90006618D02*
X120500000Y-88975000D01*
X125380393Y-90707107D02*
X125587500Y-90500000D01*
X121531618Y-96217404D02*
X117512395Y-100236627D01*
X122000000Y-91000000D02*
X124673286Y-91000000D01*
X121824511Y-91175489D02*
X121824511Y-90713725D01*
X121824511Y-95510297D02*
X121824511Y-91175489D01*
X109856627Y-100236627D02*
X109525000Y-99905000D01*
X121824511Y-91175489D02*
X122000000Y-91000000D01*
X116805288Y-100529520D02*
X110563734Y-100529520D01*
X121824490Y-90713725D02*
G75*
G03*
X121531618Y-90006618I-999990J25D01*
G01*
X109856606Y-100236648D02*
G75*
G03*
X110563734Y-100529520I707094J707148D01*
G01*
X116805288Y-100529505D02*
G75*
G03*
X117512394Y-100236626I12J1000005D01*
G01*
X124673286Y-90999990D02*
G75*
G03*
X125380393Y-90707107I14J999990D01*
G01*
X121531622Y-96217408D02*
G75*
G03*
X121824511Y-95510297I-707122J707108D01*
G01*
%TO.N,/SCL*%
X118805515Y-92330515D02*
X120500000Y-94025000D01*
X116225973Y-93035005D02*
X116930464Y-92330514D01*
X110106098Y-98429974D02*
X115091016Y-93445056D01*
X107517474Y-98429974D02*
X107250000Y-98162500D01*
X117425438Y-92125489D02*
X118310540Y-92125489D01*
X109525000Y-98635000D02*
X108012449Y-98635000D01*
X115585990Y-93240031D02*
X115730998Y-93240031D01*
X109525000Y-98635000D02*
X109611123Y-98635000D01*
X115585990Y-93240016D02*
G75*
G03*
X115091017Y-93445057I10J-699984D01*
G01*
X107517499Y-98429949D02*
G75*
G03*
X108012449Y-98635000I495001J494949D01*
G01*
X117425438Y-92125520D02*
G75*
G03*
X116930464Y-92330514I-38J-699980D01*
G01*
X115730998Y-93240020D02*
G75*
G03*
X116225973Y-93035005I2J700020D01*
G01*
X118805498Y-92330532D02*
G75*
G03*
X118310540Y-92125489I-494998J-494968D01*
G01*
X109611123Y-98635015D02*
G75*
G03*
X110106097Y-98429973I-23J700015D01*
G01*
%TO.N,+3V3*%
X112265685Y-75734315D02*
X112161314Y-75838686D01*
X110264533Y-80419533D02*
X111017686Y-81172686D01*
X109556196Y-96063804D02*
X109525000Y-96095000D01*
X109790511Y-92790511D02*
X109790511Y-95498118D01*
X106636480Y-83932520D02*
X106636480Y-84588109D01*
X115388118Y-92790511D02*
X109790511Y-92790511D01*
X106651000Y-82952000D02*
X106651000Y-83918000D01*
X117357337Y-77734315D02*
X118765686Y-79142664D01*
X110127489Y-80419533D02*
X110264533Y-80419533D01*
X106651000Y-83918000D02*
X106636480Y-83932520D01*
X119000000Y-79708349D02*
X119000000Y-80618629D01*
X110952000Y-76073000D02*
X110772000Y-76073000D01*
X106870795Y-85153795D02*
X107588686Y-85871686D01*
X115953804Y-92556196D02*
X117725686Y-90784314D01*
X120930891Y-80450480D02*
X122119109Y-80450480D01*
X108966000Y-88265000D02*
X109556197Y-88855197D01*
X122684795Y-80684795D02*
X127178186Y-85178186D01*
X107258185Y-96329315D02*
X107250000Y-96337500D01*
X127412500Y-85743871D02*
X127412500Y-90500000D01*
X109525000Y-96095000D02*
X107823871Y-96095000D01*
X116791651Y-77500000D02*
X116732085Y-77500000D01*
X110772000Y-76073000D02*
X108651000Y-73952000D01*
X117960000Y-90218629D02*
X117960000Y-88975000D01*
X106651000Y-82952000D02*
X106651000Y-81767371D01*
X107519371Y-80899000D02*
X109316651Y-80899000D01*
X111595629Y-76073000D02*
X110952000Y-76073000D01*
X111252000Y-81738371D02*
X111252000Y-81915000D01*
X107823000Y-86437371D02*
X107823000Y-86790629D01*
X108057315Y-87356315D02*
X108966000Y-88265000D01*
X106885315Y-81201685D02*
X106953686Y-81133314D01*
X109882337Y-80664685D02*
X110127489Y-80419533D01*
X110361804Y-76663196D02*
X110952000Y-76073000D01*
X114193607Y-75500000D02*
X112831371Y-75500000D01*
X119550000Y-81500000D02*
X120365206Y-80684794D01*
X109790511Y-89420882D02*
X109790511Y-92790511D01*
X116378531Y-77353553D02*
X114759292Y-75734314D01*
X110127489Y-80419533D02*
X110127489Y-77228882D01*
X119550000Y-81500000D02*
X119234314Y-81184314D01*
X107822980Y-86790629D02*
G75*
G03*
X108057315Y-87356315I800020J29D01*
G01*
X107823020Y-86437371D02*
G75*
G03*
X107588686Y-85871686I-800020J-29D01*
G01*
X118999980Y-80618629D02*
G75*
G03*
X119234314Y-81184314I800020J29D01*
G01*
X115388118Y-92790520D02*
G75*
G03*
X115953804Y-92556196I-18J800020D01*
G01*
X120930891Y-80450480D02*
G75*
G03*
X120365206Y-80684794I9J-800020D01*
G01*
X106885330Y-81201700D02*
G75*
G03*
X106651000Y-81767371I565670J-565700D01*
G01*
X127412520Y-85743871D02*
G75*
G03*
X127178186Y-85178186I-800020J-29D01*
G01*
X111252020Y-81738371D02*
G75*
G03*
X111017686Y-81172686I-800020J-29D01*
G01*
X111595629Y-76073020D02*
G75*
G03*
X112161314Y-75838686I-29J800020D01*
G01*
X106636480Y-84588109D02*
G75*
G03*
X106870795Y-85153795I800020J9D01*
G01*
X122684795Y-80684795D02*
G75*
G03*
X122119109Y-80450480I-565695J-565705D01*
G01*
X114759288Y-75734318D02*
G75*
G03*
X114193607Y-75500000I-565688J-565682D01*
G01*
X109790520Y-89420882D02*
G75*
G03*
X109556197Y-88855197I-800020J-18D01*
G01*
X109556189Y-96063797D02*
G75*
G03*
X109790511Y-95498118I-565689J565697D01*
G01*
X107519371Y-80898980D02*
G75*
G03*
X106953686Y-81133314I29J-800020D01*
G01*
X118999965Y-79708349D02*
G75*
G03*
X118765686Y-79142664I-799965J49D01*
G01*
X112831371Y-75499980D02*
G75*
G03*
X112265685Y-75734315I29J-800020D01*
G01*
X117725671Y-90784299D02*
G75*
G03*
X117960000Y-90218629I-565671J565699D01*
G01*
X110361811Y-76663203D02*
G75*
G03*
X110127489Y-77228882I565689J-565697D01*
G01*
X116378539Y-77353545D02*
G75*
G03*
X116732085Y-77500000I353561J353545D01*
G01*
X107823871Y-96094980D02*
G75*
G03*
X107258185Y-96329315I29J-800020D01*
G01*
X117357361Y-77734291D02*
G75*
G03*
X116791651Y-77500000I-565661J-565709D01*
G01*
X109316651Y-80898965D02*
G75*
G03*
X109882337Y-80664685I49J799965D01*
G01*
%TO.N,GND*%
X116032141Y-84403645D02*
X116032141Y-84230669D01*
X115886511Y-87041703D02*
X115886511Y-90277275D01*
X116640893Y-85873107D02*
X116179404Y-86334596D01*
X103400000Y-89048000D02*
X107044975Y-92692975D01*
X103400000Y-89048000D02*
X102567382Y-88215382D01*
X120585786Y-83500000D02*
X117713022Y-83500000D01*
X121374991Y-91374991D02*
X120573716Y-91374991D01*
X114237489Y-90277275D02*
X114237489Y-87026725D01*
X103740893Y-81707107D02*
X105400000Y-80048000D01*
X121113304Y-96000000D02*
X121374991Y-95738313D01*
X114475000Y-96095000D02*
X114475000Y-97365000D01*
X116207877Y-83806405D02*
X116221389Y-83792893D01*
X115062000Y-91516000D02*
X114530382Y-90984382D01*
X119866609Y-91082098D02*
X119292893Y-90508382D01*
X117879618Y-83333404D02*
X117713022Y-83500000D01*
X113829520Y-99259520D02*
X114475000Y-99905000D01*
X116928496Y-83500000D02*
X117713022Y-83500000D01*
X107250000Y-93187949D02*
X107250000Y-94522558D01*
X114475000Y-98635000D02*
X114454040Y-98635000D01*
X120349214Y-96000000D02*
X121113304Y-96000000D01*
X117960000Y-94025000D02*
X119642107Y-95707107D01*
X114530382Y-86319618D02*
X115739248Y-85110752D01*
X118172511Y-80862725D02*
X118172511Y-82626297D01*
X102274489Y-87508275D02*
X102274489Y-82127489D01*
X107132936Y-99280480D02*
X113808560Y-99280480D01*
X115593618Y-90984382D02*
X115062000Y-91516000D01*
X106430506Y-98867999D02*
X106637962Y-99075455D01*
X121450000Y-83050000D02*
X121292893Y-83207107D01*
X121374991Y-95738313D02*
X121374991Y-91374991D01*
X114475000Y-97365000D02*
X114475000Y-98635000D01*
X102401978Y-82000000D02*
X103033786Y-82000000D01*
X119000000Y-89801275D02*
X119000000Y-87232214D01*
X107044974Y-95017533D02*
X106430505Y-95632002D01*
X118707107Y-86525107D02*
X118055107Y-85873107D01*
X106225480Y-96126976D02*
X106225480Y-98373024D01*
X114454040Y-98635000D02*
X113829520Y-99259520D01*
X114475000Y-96095000D02*
X116252107Y-94317893D01*
X102274489Y-82127489D02*
X102401978Y-82000000D01*
X117048000Y-79324000D02*
X117879618Y-80155618D01*
X121450000Y-81500000D02*
X121450000Y-83050000D01*
X116959214Y-94025000D02*
X117960000Y-94025000D01*
X113808560Y-99280480D02*
X113829520Y-99259520D01*
X107250035Y-93187949D02*
G75*
G03*
X107044974Y-92692976I-700035J-51D01*
G01*
X114530367Y-86319603D02*
G75*
G03*
X114237489Y-87026725I707133J-707097D01*
G01*
X102274510Y-87508275D02*
G75*
G03*
X102567382Y-88215382I999990J-25D01*
G01*
X106430513Y-95632010D02*
G75*
G03*
X106225480Y-96126976I494987J-494990D01*
G01*
X106637948Y-99075469D02*
G75*
G03*
X107132936Y-99280480I494952J494969D01*
G01*
X103033786Y-81999990D02*
G75*
G03*
X103740893Y-81707107I14J999990D01*
G01*
X115739234Y-85110738D02*
G75*
G03*
X116032141Y-84403645I-707134J707138D01*
G01*
X107044995Y-95017554D02*
G75*
G03*
X107250000Y-94522558I-494995J494954D01*
G01*
X116959214Y-94025010D02*
G75*
G03*
X116252107Y-94317893I-14J-999990D01*
G01*
X115593633Y-90984397D02*
G75*
G03*
X115886511Y-90277275I-707133J707097D01*
G01*
X119000018Y-89801275D02*
G75*
G03*
X119292893Y-90508382I999982J-25D01*
G01*
X119642100Y-95707114D02*
G75*
G03*
X120349214Y-96000000I707100J707114D01*
G01*
X114237510Y-90277275D02*
G75*
G03*
X114530382Y-90984382I999990J-25D01*
G01*
X117879622Y-83333408D02*
G75*
G03*
X118172511Y-82626297I-707122J707108D01*
G01*
X106225470Y-98373024D02*
G75*
G03*
X106430507Y-98867998I700030J24D01*
G01*
X118055107Y-85873107D02*
G75*
G03*
X116640893Y-85873107I-707107J-707108D01*
G01*
X116928496Y-83499997D02*
G75*
G03*
X116221389Y-83792893I4J-1000003D01*
G01*
X116207901Y-83806429D02*
G75*
G03*
X116032141Y-84230669I424199J-424271D01*
G01*
X120585786Y-83499990D02*
G75*
G03*
X121292893Y-83207107I14J999990D01*
G01*
X118999990Y-87232214D02*
G75*
G03*
X118707107Y-86525107I-999990J14D01*
G01*
X118172490Y-80862725D02*
G75*
G03*
X117879618Y-80155618I-999990J25D01*
G01*
X116179405Y-86334597D02*
G75*
G03*
X115886511Y-87041703I707095J-707103D01*
G01*
X119866603Y-91082104D02*
G75*
G03*
X120573716Y-91374991I707097J707104D01*
G01*
%TO.N,LED_DATA*%
X115062000Y-88316000D02*
X115062000Y-87102214D01*
X116500000Y-84835786D02*
X116500000Y-84308332D01*
X116558579Y-84166910D02*
X116591422Y-84134067D01*
X116732843Y-84075489D02*
X118459275Y-84075489D01*
X115354893Y-86395107D02*
X116207107Y-85542893D01*
X123040000Y-88242000D02*
X123040000Y-88975000D01*
X119166382Y-84368382D02*
X123040000Y-88242000D01*
X119166397Y-84368367D02*
G75*
G03*
X118459275Y-84075489I-707097J-707133D01*
G01*
X116558563Y-84166894D02*
G75*
G03*
X116500000Y-84308332I141437J-141406D01*
G01*
X116732843Y-84075523D02*
G75*
G03*
X116591422Y-84134067I-43J-199977D01*
G01*
X115354886Y-86395100D02*
G75*
G03*
X115062000Y-87102214I707114J-707100D01*
G01*
X116207114Y-85542900D02*
G75*
G03*
X116500000Y-84835786I-707114J707100D01*
G01*
%TO.N,Net-(D2-Pad2)*%
X103349000Y-82952000D02*
X104349000Y-82952000D01*
X107253000Y-80048000D02*
X108600000Y-80048000D01*
X104349000Y-82952000D02*
X107253000Y-80048000D01*
%TO.N,Net-(D3-Pad2)*%
X117048000Y-76124000D02*
X114344382Y-73420382D01*
X105880618Y-73420382D02*
X105349000Y-73952000D01*
X113637275Y-73127489D02*
X106587725Y-73127489D01*
X114344397Y-73420367D02*
G75*
G03*
X113637275Y-73127489I-707097J-707133D01*
G01*
X106587725Y-73127510D02*
G75*
G03*
X105880618Y-73420382I-25J-999990D01*
G01*
%TO.N,Net-(D4-Pad2)*%
X110952000Y-79375000D02*
X114342786Y-79375000D01*
X115049893Y-79667893D02*
X117348000Y-81966000D01*
X115049900Y-79667886D02*
G75*
G03*
X114342786Y-79375000I-707100J-707114D01*
G01*
%TD*%
M02*
