%TF.GenerationSoftware,KiCad,Pcbnew,(6.0.1)*%
%TF.CreationDate,2022-06-27T23:46:06+01:00*%
%TF.ProjectId,Butterfly_Badge_Addon,42757474-6572-4666-9c79-5f4261646765,rev?*%
%TF.SameCoordinates,Original*%
%TF.FileFunction,Legend,Bot*%
%TF.FilePolarity,Positive*%
%FSLAX46Y46*%
G04 Gerber Fmt 4.6, Leading zero omitted, Abs format (unit mm)*
G04 Created by KiCad (PCBNEW (6.0.1)) date 2022-06-27 23:46:06*
%MOMM*%
%LPD*%
G01*
G04 APERTURE LIST*
%ADD10C,0.225000*%
%ADD11C,0.150000*%
%ADD12C,0.120000*%
G04 APERTURE END LIST*
D10*
X110289857Y-83973142D02*
X110718428Y-83973142D01*
X110718428Y-83073142D01*
X109989857Y-83501714D02*
X109689857Y-83501714D01*
X109561285Y-83973142D02*
X109989857Y-83973142D01*
X109989857Y-83073142D01*
X109561285Y-83073142D01*
X109175571Y-83973142D02*
X109175571Y-83073142D01*
X108961285Y-83073142D01*
X108832714Y-83116000D01*
X108747000Y-83201714D01*
X108704142Y-83287428D01*
X108661285Y-83458857D01*
X108661285Y-83587428D01*
X108704142Y-83758857D01*
X108747000Y-83844571D01*
X108832714Y-83930285D01*
X108961285Y-83973142D01*
X109175571Y-83973142D01*
X108318428Y-83930285D02*
X108232714Y-83973142D01*
X108061285Y-83973142D01*
X107975571Y-83930285D01*
X107932714Y-83844571D01*
X107932714Y-83801714D01*
X107975571Y-83716000D01*
X108061285Y-83673142D01*
X108189857Y-83673142D01*
X108275571Y-83630285D01*
X108318428Y-83544571D01*
X108318428Y-83501714D01*
X108275571Y-83416000D01*
X108189857Y-83373142D01*
X108061285Y-83373142D01*
X107975571Y-83416000D01*
D11*
%TO.C,Capacitor*%
X125062904Y-83607142D02*
X125110523Y-83654761D01*
X125253380Y-83702380D01*
X125348619Y-83702380D01*
X125491476Y-83654761D01*
X125586714Y-83559523D01*
X125634333Y-83464285D01*
X125681952Y-83273809D01*
X125681952Y-83130952D01*
X125634333Y-82940476D01*
X125586714Y-82845238D01*
X125491476Y-82750000D01*
X125348619Y-82702380D01*
X125253380Y-82702380D01*
X125110523Y-82750000D01*
X125062904Y-82797619D01*
X124205761Y-83702380D02*
X124205761Y-83178571D01*
X124253380Y-83083333D01*
X124348619Y-83035714D01*
X124539095Y-83035714D01*
X124634333Y-83083333D01*
X124205761Y-83654761D02*
X124301000Y-83702380D01*
X124539095Y-83702380D01*
X124634333Y-83654761D01*
X124681952Y-83559523D01*
X124681952Y-83464285D01*
X124634333Y-83369047D01*
X124539095Y-83321428D01*
X124301000Y-83321428D01*
X124205761Y-83273809D01*
X123729571Y-83035714D02*
X123729571Y-84035714D01*
X123729571Y-83083333D02*
X123634333Y-83035714D01*
X123443857Y-83035714D01*
X123348619Y-83083333D01*
X123301000Y-83130952D01*
X123253380Y-83226190D01*
X123253380Y-83511904D01*
X123301000Y-83607142D01*
X123348619Y-83654761D01*
X123443857Y-83702380D01*
X123634333Y-83702380D01*
X123729571Y-83654761D01*
X122396238Y-83702380D02*
X122396238Y-83178571D01*
X122443857Y-83083333D01*
X122539095Y-83035714D01*
X122729571Y-83035714D01*
X122824809Y-83083333D01*
X122396238Y-83654761D02*
X122491476Y-83702380D01*
X122729571Y-83702380D01*
X122824809Y-83654761D01*
X122872428Y-83559523D01*
X122872428Y-83464285D01*
X122824809Y-83369047D01*
X122729571Y-83321428D01*
X122491476Y-83321428D01*
X122396238Y-83273809D01*
X121491476Y-83654761D02*
X121586714Y-83702380D01*
X121777190Y-83702380D01*
X121872428Y-83654761D01*
X121920047Y-83607142D01*
X121967666Y-83511904D01*
X121967666Y-83226190D01*
X121920047Y-83130952D01*
X121872428Y-83083333D01*
X121777190Y-83035714D01*
X121586714Y-83035714D01*
X121491476Y-83083333D01*
X121062904Y-83702380D02*
X121062904Y-83035714D01*
X121062904Y-82702380D02*
X121110523Y-82750000D01*
X121062904Y-82797619D01*
X121015285Y-82750000D01*
X121062904Y-82702380D01*
X121062904Y-82797619D01*
X120729571Y-83035714D02*
X120348619Y-83035714D01*
X120586714Y-82702380D02*
X120586714Y-83559523D01*
X120539095Y-83654761D01*
X120443857Y-83702380D01*
X120348619Y-83702380D01*
X119872428Y-83702380D02*
X119967666Y-83654761D01*
X120015285Y-83607142D01*
X120062904Y-83511904D01*
X120062904Y-83226190D01*
X120015285Y-83130952D01*
X119967666Y-83083333D01*
X119872428Y-83035714D01*
X119729571Y-83035714D01*
X119634333Y-83083333D01*
X119586714Y-83130952D01*
X119539095Y-83226190D01*
X119539095Y-83511904D01*
X119586714Y-83607142D01*
X119634333Y-83654761D01*
X119729571Y-83702380D01*
X119872428Y-83702380D01*
X119110523Y-83702380D02*
X119110523Y-83035714D01*
X119110523Y-83226190D02*
X119062904Y-83130952D01*
X119015285Y-83083333D01*
X118920047Y-83035714D01*
X118824809Y-83035714D01*
%TO.C,EEPROM*%
X114511904Y-101428571D02*
X114178571Y-101428571D01*
X114035714Y-101952380D02*
X114511904Y-101952380D01*
X114511904Y-100952380D01*
X114035714Y-100952380D01*
X113607142Y-101428571D02*
X113273809Y-101428571D01*
X113130952Y-101952380D02*
X113607142Y-101952380D01*
X113607142Y-100952380D01*
X113130952Y-100952380D01*
X112702380Y-101952380D02*
X112702380Y-100952380D01*
X112321428Y-100952380D01*
X112226190Y-101000000D01*
X112178571Y-101047619D01*
X112130952Y-101142857D01*
X112130952Y-101285714D01*
X112178571Y-101380952D01*
X112226190Y-101428571D01*
X112321428Y-101476190D01*
X112702380Y-101476190D01*
X111130952Y-101952380D02*
X111464285Y-101476190D01*
X111702380Y-101952380D02*
X111702380Y-100952380D01*
X111321428Y-100952380D01*
X111226190Y-101000000D01*
X111178571Y-101047619D01*
X111130952Y-101142857D01*
X111130952Y-101285714D01*
X111178571Y-101380952D01*
X111226190Y-101428571D01*
X111321428Y-101476190D01*
X111702380Y-101476190D01*
X110511904Y-100952380D02*
X110321428Y-100952380D01*
X110226190Y-101000000D01*
X110130952Y-101095238D01*
X110083333Y-101285714D01*
X110083333Y-101619047D01*
X110130952Y-101809523D01*
X110226190Y-101904761D01*
X110321428Y-101952380D01*
X110511904Y-101952380D01*
X110607142Y-101904761D01*
X110702380Y-101809523D01*
X110750000Y-101619047D01*
X110750000Y-101285714D01*
X110702380Y-101095238D01*
X110607142Y-101000000D01*
X110511904Y-100952380D01*
X109654761Y-101952380D02*
X109654761Y-100952380D01*
X109321428Y-101666666D01*
X108988095Y-100952380D01*
X108988095Y-101952380D01*
%TO.C,SCL~PullUp*%
X109603217Y-95570637D02*
X109468530Y-95503293D01*
X109300171Y-95334934D01*
X109266499Y-95233919D01*
X109266499Y-95166575D01*
X109300171Y-95065560D01*
X109367514Y-94998217D01*
X109468530Y-94964545D01*
X109535873Y-94964545D01*
X109636888Y-94998217D01*
X109805247Y-95099232D01*
X109906263Y-95132904D01*
X109973606Y-95132904D01*
X110074621Y-95099232D01*
X110141965Y-95031888D01*
X110175637Y-94930873D01*
X110175637Y-94863530D01*
X110141965Y-94762514D01*
X109973606Y-94594156D01*
X109838919Y-94526812D01*
X108525721Y-94425797D02*
X108525721Y-94493140D01*
X108593064Y-94627827D01*
X108660408Y-94695171D01*
X108795095Y-94762514D01*
X108929782Y-94762514D01*
X109030797Y-94728843D01*
X109199156Y-94627827D01*
X109300171Y-94526812D01*
X109401186Y-94358453D01*
X109434858Y-94257438D01*
X109434858Y-94122751D01*
X109367514Y-93988064D01*
X109300171Y-93920721D01*
X109165484Y-93853377D01*
X109098140Y-93853377D01*
X107818614Y-93853377D02*
X108155331Y-94190095D01*
X108862438Y-93482988D01*
X107953301Y-93449316D02*
X107953301Y-93381973D01*
X107919629Y-93280957D01*
X107717599Y-93213614D01*
X107683927Y-93112599D01*
X107683927Y-93045255D01*
X107077835Y-93112599D02*
X107784942Y-92405492D01*
X107515568Y-92136118D01*
X107414553Y-92102446D01*
X107347209Y-92102446D01*
X107246194Y-92136118D01*
X107145179Y-92237133D01*
X107111507Y-92338148D01*
X107111507Y-92405492D01*
X107145179Y-92506507D01*
X107414553Y-92775881D01*
X106539087Y-91631042D02*
X106067683Y-92102446D01*
X106842133Y-91934087D02*
X106471744Y-92304477D01*
X106370729Y-92338148D01*
X106269713Y-92304477D01*
X106168698Y-92203461D01*
X106135026Y-92102446D01*
X106135026Y-92035103D01*
X105629950Y-91664713D02*
X105730965Y-91698385D01*
X105831981Y-91664713D01*
X106438072Y-91058622D01*
X105259561Y-91294324D02*
X105360576Y-91327996D01*
X105461591Y-91294324D01*
X106067683Y-90688233D01*
X105697294Y-90317843D02*
X105124874Y-90890263D01*
X105023859Y-90923935D01*
X104956515Y-90923935D01*
X104855500Y-90890263D01*
X104720813Y-90755576D01*
X104687141Y-90654561D01*
X104687141Y-90587217D01*
X104720813Y-90486202D01*
X105293233Y-89913782D01*
X104720813Y-89812767D02*
X104013706Y-90519874D01*
X104687141Y-89846439D02*
X104653469Y-89745424D01*
X104518782Y-89610736D01*
X104417767Y-89577065D01*
X104350424Y-89577065D01*
X104249408Y-89610736D01*
X104047378Y-89812767D01*
X104013706Y-89913782D01*
X104013706Y-89981126D01*
X104047378Y-90082141D01*
X104182065Y-90216828D01*
X104283080Y-90250500D01*
%TO.C,SDA~PullUp*%
X131401472Y-90150946D02*
X131334129Y-90285633D01*
X131165770Y-90453992D01*
X131064755Y-90487664D01*
X130997411Y-90487664D01*
X130896396Y-90453992D01*
X130829053Y-90386649D01*
X130795381Y-90285633D01*
X130795381Y-90218290D01*
X130829053Y-90117275D01*
X130930068Y-89948916D01*
X130963740Y-89847901D01*
X130963740Y-89780557D01*
X130930068Y-89679542D01*
X130862724Y-89612198D01*
X130761709Y-89578527D01*
X130694366Y-89578527D01*
X130593350Y-89612198D01*
X130424992Y-89780557D01*
X130357648Y-89915244D01*
X130728037Y-90891725D02*
X130020931Y-90184618D01*
X129852572Y-90352977D01*
X129785228Y-90487664D01*
X129785228Y-90622351D01*
X129818900Y-90723366D01*
X129919915Y-90891725D01*
X130020931Y-90992740D01*
X130189289Y-91093755D01*
X130290305Y-91127427D01*
X130424992Y-91127427D01*
X130559679Y-91060084D01*
X130728037Y-90891725D01*
X129852572Y-91363129D02*
X129515854Y-91699847D01*
X130121946Y-91497816D02*
X129179137Y-91026412D01*
X129650541Y-91969221D01*
X129246480Y-91834534D02*
X129179137Y-91834534D01*
X129078122Y-91868206D01*
X129010778Y-92070236D01*
X128909763Y-92103908D01*
X128842419Y-92103908D01*
X128909763Y-92710000D02*
X128202656Y-92002893D01*
X127933282Y-92272267D01*
X127899610Y-92373282D01*
X127899610Y-92440625D01*
X127933282Y-92541641D01*
X128034297Y-92642656D01*
X128135312Y-92676328D01*
X128202656Y-92676328D01*
X128303671Y-92642656D01*
X128573045Y-92373282D01*
X127428206Y-93248748D02*
X127899610Y-93720152D01*
X127731251Y-92945702D02*
X128101641Y-93316091D01*
X128135312Y-93417106D01*
X128101641Y-93518122D01*
X128000625Y-93619137D01*
X127899610Y-93652809D01*
X127832267Y-93652809D01*
X127461877Y-94157885D02*
X127495549Y-94056870D01*
X127461877Y-93955854D01*
X126855786Y-93349763D01*
X127091488Y-94528274D02*
X127125160Y-94427259D01*
X127091488Y-94326244D01*
X126485397Y-93720152D01*
X126115007Y-94090541D02*
X126687427Y-94662961D01*
X126721099Y-94763976D01*
X126721099Y-94831320D01*
X126687427Y-94932335D01*
X126552740Y-95067022D01*
X126451725Y-95100694D01*
X126384381Y-95100694D01*
X126283366Y-95067022D01*
X125710946Y-94494602D01*
X125609931Y-95067022D02*
X126317038Y-95774129D01*
X125643603Y-95100694D02*
X125542588Y-95134366D01*
X125407901Y-95269053D01*
X125374229Y-95370068D01*
X125374229Y-95437411D01*
X125407901Y-95538427D01*
X125609931Y-95740457D01*
X125710946Y-95774129D01*
X125778290Y-95774129D01*
X125879305Y-95740457D01*
X126013992Y-95605770D01*
X126047664Y-95504755D01*
%TO.C,Header*%
X123007142Y-96972380D02*
X123007142Y-95972380D01*
X123007142Y-96448571D02*
X122435714Y-96448571D01*
X122435714Y-96972380D02*
X122435714Y-95972380D01*
X121578571Y-96924761D02*
X121673809Y-96972380D01*
X121864285Y-96972380D01*
X121959523Y-96924761D01*
X122007142Y-96829523D01*
X122007142Y-96448571D01*
X121959523Y-96353333D01*
X121864285Y-96305714D01*
X121673809Y-96305714D01*
X121578571Y-96353333D01*
X121530952Y-96448571D01*
X121530952Y-96543809D01*
X122007142Y-96639047D01*
X120673809Y-96972380D02*
X120673809Y-96448571D01*
X120721428Y-96353333D01*
X120816666Y-96305714D01*
X121007142Y-96305714D01*
X121102380Y-96353333D01*
X120673809Y-96924761D02*
X120769047Y-96972380D01*
X121007142Y-96972380D01*
X121102380Y-96924761D01*
X121150000Y-96829523D01*
X121150000Y-96734285D01*
X121102380Y-96639047D01*
X121007142Y-96591428D01*
X120769047Y-96591428D01*
X120673809Y-96543809D01*
X119769047Y-96972380D02*
X119769047Y-95972380D01*
X119769047Y-96924761D02*
X119864285Y-96972380D01*
X120054761Y-96972380D01*
X120150000Y-96924761D01*
X120197619Y-96877142D01*
X120245238Y-96781904D01*
X120245238Y-96496190D01*
X120197619Y-96400952D01*
X120150000Y-96353333D01*
X120054761Y-96305714D01*
X119864285Y-96305714D01*
X119769047Y-96353333D01*
X118911904Y-96924761D02*
X119007142Y-96972380D01*
X119197619Y-96972380D01*
X119292857Y-96924761D01*
X119340476Y-96829523D01*
X119340476Y-96448571D01*
X119292857Y-96353333D01*
X119197619Y-96305714D01*
X119007142Y-96305714D01*
X118911904Y-96353333D01*
X118864285Y-96448571D01*
X118864285Y-96543809D01*
X119340476Y-96639047D01*
X118435714Y-96972380D02*
X118435714Y-96305714D01*
X118435714Y-96496190D02*
X118388095Y-96400952D01*
X118340476Y-96353333D01*
X118245238Y-96305714D01*
X118150000Y-96305714D01*
D12*
%TO.C,Capacitor*%
X120238748Y-82235000D02*
X120761252Y-82235000D01*
X120238748Y-80765000D02*
X120761252Y-80765000D01*
%TO.C,D5*%
X117928000Y-85963000D02*
X117928000Y-84813000D01*
X117928000Y-85963000D02*
X116768000Y-85963000D01*
%TO.C,D1*%
X115642000Y-92329000D02*
X115642000Y-91179000D01*
X115642000Y-92329000D02*
X114482000Y-92329000D01*
%TO.C,D3*%
X104587000Y-80628000D02*
X104587000Y-79468000D01*
X104587000Y-80628000D02*
X105737000Y-80628000D01*
%TO.C,EEPROM*%
X112000000Y-100560000D02*
X113950000Y-100560000D01*
X112000000Y-95440000D02*
X115450000Y-95440000D01*
X112000000Y-95440000D02*
X110050000Y-95440000D01*
X112000000Y-100560000D02*
X110050000Y-100560000D01*
%TO.C,D4*%
X117628000Y-80137000D02*
X116468000Y-80137000D01*
X117628000Y-80137000D02*
X117628000Y-78987000D01*
%TO.C,D2*%
X102587000Y-89628000D02*
X103737000Y-89628000D01*
X102587000Y-89628000D02*
X102587000Y-88468000D01*
%TO.C,SCL~PullUp*%
X107985000Y-97477064D02*
X107985000Y-97022936D01*
X106515000Y-97477064D02*
X106515000Y-97022936D01*
%TO.C,SDA~PullUp*%
X126272936Y-89765000D02*
X126727064Y-89765000D01*
X126272936Y-91235000D02*
X126727064Y-91235000D01*
%TO.C,Header*%
X117200000Y-87460000D02*
X117200000Y-88900000D01*
X124370000Y-88900000D02*
X124370000Y-94100000D01*
X116630000Y-94100000D02*
X117200000Y-94100000D01*
X121260000Y-94100000D02*
X122280000Y-94100000D01*
X123800000Y-94100000D02*
X124370000Y-94100000D01*
X116630000Y-88900000D02*
X116630000Y-94100000D01*
X118720000Y-88900000D02*
X119740000Y-88900000D01*
X123800000Y-88900000D02*
X124370000Y-88900000D01*
X121260000Y-88900000D02*
X122280000Y-88900000D01*
X118720000Y-94100000D02*
X119740000Y-94100000D01*
X116630000Y-88900000D02*
X117200000Y-88900000D01*
%TD*%
M02*
