%TF.GenerationSoftware,KiCad,Pcbnew,(6.0.1)*%
%TF.CreationDate,2022-06-27T23:46:06+01:00*%
%TF.ProjectId,Butterfly_Badge_Addon,42757474-6572-4666-9c79-5f4261646765,rev?*%
%TF.SameCoordinates,Original*%
%TF.FileFunction,Paste,Bot*%
%TF.FilePolarity,Positive*%
%FSLAX46Y46*%
G04 Gerber Fmt 4.6, Leading zero omitted, Abs format (unit mm)*
G04 Created by KiCad (PCBNEW (6.0.1)) date 2022-06-27 23:46:06*
%MOMM*%
%LPD*%
G01*
G04 APERTURE LIST*
G04 Aperture macros list*
%AMRoundRect*
0 Rectangle with rounded corners*
0 $1 Rounding radius*
0 $2 $3 $4 $5 $6 $7 $8 $9 X,Y pos of 4 corners*
0 Add a 4 corners polygon primitive as box body*
4,1,4,$2,$3,$4,$5,$6,$7,$8,$9,$2,$3,0*
0 Add four circle primitives for the rounded corners*
1,1,$1+$1,$2,$3*
1,1,$1+$1,$4,$5*
1,1,$1+$1,$6,$7*
1,1,$1+$1,$8,$9*
0 Add four rect primitives between the rounded corners*
20,1,$1+$1,$2,$3,$4,$5,0*
20,1,$1+$1,$4,$5,$6,$7,0*
20,1,$1+$1,$6,$7,$8,$9,0*
20,1,$1+$1,$8,$9,$2,$3,0*%
G04 Aperture macros list end*
%ADD10RoundRect,0.250000X-0.250000X-0.475000X0.250000X-0.475000X0.250000X0.475000X-0.250000X0.475000X0*%
%ADD11R,1.000000X1.500000*%
%ADD12R,1.500000X1.000000*%
%ADD13RoundRect,0.150000X0.825000X0.150000X-0.825000X0.150000X-0.825000X-0.150000X0.825000X-0.150000X0*%
%ADD14RoundRect,0.250000X0.450000X-0.262500X0.450000X0.262500X-0.450000X0.262500X-0.450000X-0.262500X0*%
%ADD15RoundRect,0.250000X-0.262500X-0.450000X0.262500X-0.450000X0.262500X0.450000X-0.262500X0.450000X0*%
%ADD16R,1.000000X3.150000*%
G04 APERTURE END LIST*
D10*
%TO.C,Capacitor*%
X119550000Y-81500000D03*
X121450000Y-81500000D03*
%TD*%
D11*
%TO.C,D5*%
X111252000Y-81899000D03*
X111252000Y-85201000D03*
X117348000Y-85150000D03*
X117348000Y-81950000D03*
%TD*%
%TO.C,D1*%
X108966000Y-88265000D03*
X108966000Y-91567000D03*
X115062000Y-91516000D03*
X115062000Y-88316000D03*
%TD*%
D12*
%TO.C,D3*%
X108651000Y-73952000D03*
X105349000Y-73952000D03*
X105400000Y-80048000D03*
X108600000Y-80048000D03*
%TD*%
D13*
%TO.C,EEPROM*%
X114475000Y-96095000D03*
X114475000Y-97365000D03*
X114475000Y-98635000D03*
X114475000Y-99905000D03*
X109525000Y-99905000D03*
X109525000Y-98635000D03*
X109525000Y-97365000D03*
X109525000Y-96095000D03*
%TD*%
D11*
%TO.C,D4*%
X110952000Y-76073000D03*
X110952000Y-79375000D03*
X117048000Y-79324000D03*
X117048000Y-76124000D03*
%TD*%
D12*
%TO.C,D2*%
X106651000Y-82952000D03*
X103349000Y-82952000D03*
X103400000Y-89048000D03*
X106600000Y-89048000D03*
%TD*%
D14*
%TO.C,SCL~PullUp*%
X107250000Y-98162500D03*
X107250000Y-96337500D03*
%TD*%
D15*
%TO.C,SDA~PullUp*%
X125587500Y-90500000D03*
X127412500Y-90500000D03*
%TD*%
D16*
%TO.C,Header*%
X117960000Y-88975000D03*
X117960000Y-94025000D03*
X120500000Y-88975000D03*
X120500000Y-94025000D03*
X123040000Y-88975000D03*
X123040000Y-94025000D03*
%TD*%
M02*
