%TF.GenerationSoftware,KiCad,Pcbnew,(6.0.1)*%
%TF.CreationDate,2022-06-27T23:46:07+01:00*%
%TF.ProjectId,Butterfly_Badge_Addon,42757474-6572-4666-9c79-5f4261646765,rev?*%
%TF.SameCoordinates,Original*%
%TF.FileFunction,Soldermask,Bot*%
%TF.FilePolarity,Negative*%
%FSLAX46Y46*%
G04 Gerber Fmt 4.6, Leading zero omitted, Abs format (unit mm)*
G04 Created by KiCad (PCBNEW (6.0.1)) date 2022-06-27 23:46:07*
%MOMM*%
%LPD*%
G01*
G04 APERTURE LIST*
G04 Aperture macros list*
%AMRoundRect*
0 Rectangle with rounded corners*
0 $1 Rounding radius*
0 $2 $3 $4 $5 $6 $7 $8 $9 X,Y pos of 4 corners*
0 Add a 4 corners polygon primitive as box body*
4,1,4,$2,$3,$4,$5,$6,$7,$8,$9,$2,$3,0*
0 Add four circle primitives for the rounded corners*
1,1,$1+$1,$2,$3*
1,1,$1+$1,$4,$5*
1,1,$1+$1,$6,$7*
1,1,$1+$1,$8,$9*
0 Add four rect primitives between the rounded corners*
20,1,$1+$1,$2,$3,$4,$5,0*
20,1,$1+$1,$4,$5,$6,$7,0*
20,1,$1+$1,$6,$7,$8,$9,0*
20,1,$1+$1,$8,$9,$2,$3,0*%
G04 Aperture macros list end*
%ADD10C,0.200000*%
%ADD11RoundRect,0.250000X-0.250000X-0.475000X0.250000X-0.475000X0.250000X0.475000X-0.250000X0.475000X0*%
%ADD12R,1.000000X1.500000*%
%ADD13R,1.500000X1.000000*%
%ADD14RoundRect,0.150000X0.825000X0.150000X-0.825000X0.150000X-0.825000X-0.150000X0.825000X-0.150000X0*%
%ADD15RoundRect,0.250000X0.450000X-0.262500X0.450000X0.262500X-0.450000X0.262500X-0.450000X-0.262500X0*%
%ADD16RoundRect,0.250000X-0.262500X-0.450000X0.262500X-0.450000X0.262500X0.450000X-0.262500X0.450000X0*%
%ADD17R,1.000000X3.150000*%
G04 APERTURE END LIST*
D10*
X109474000Y-82677000D02*
X110236000Y-81153000D01*
X108204000Y-81280000D02*
X107950000Y-81788000D01*
X110998000Y-83566000D02*
X111633000Y-83566000D01*
X108839000Y-82677000D02*
X108204000Y-81280000D01*
X111633000Y-83566000D02*
X111379000Y-83947000D01*
X108204000Y-81280000D02*
X108712000Y-81534000D01*
%TO.C,G\u002A\u002A\u002A*%
G36*
X102424031Y-90085654D02*
G01*
X102413689Y-90095996D01*
X102403347Y-90085654D01*
X102413689Y-90075312D01*
X102424031Y-90085654D01*
G37*
G36*
X114806876Y-92522923D02*
G01*
X114804037Y-92535220D01*
X114793087Y-92536712D01*
X114776061Y-92529144D01*
X114779297Y-92522923D01*
X114803844Y-92520448D01*
X114806876Y-92522923D01*
G37*
G36*
X110345176Y-83347330D02*
G01*
X110346018Y-83352999D01*
X110338961Y-83373145D01*
X110336897Y-83373683D01*
X110319237Y-83359189D01*
X110314992Y-83352999D01*
X110316632Y-83333939D01*
X110324113Y-83332315D01*
X110345176Y-83347330D01*
G37*
G36*
X104293934Y-78693248D02*
G01*
X104302319Y-78592578D01*
X104313314Y-78538301D01*
X104330467Y-78475977D01*
X104333525Y-78437527D01*
X104320681Y-78407329D01*
X104294423Y-78374743D01*
X104262790Y-78336243D01*
X104248819Y-78306284D01*
X104252035Y-78271478D01*
X104271960Y-78218434D01*
X104287567Y-78181989D01*
X104330452Y-78104940D01*
X104351463Y-78087187D01*
X111525008Y-78087187D01*
X111540746Y-78119627D01*
X111590373Y-78136174D01*
X111626463Y-78138988D01*
X111660513Y-78138006D01*
X111660675Y-78124920D01*
X111638771Y-78099253D01*
X111597941Y-78068739D01*
X111557207Y-78058777D01*
X111529718Y-78070760D01*
X111525008Y-78087187D01*
X104351463Y-78087187D01*
X104378249Y-78064555D01*
X104385816Y-78061464D01*
X104444061Y-78031672D01*
X104482093Y-78003247D01*
X104532876Y-77964112D01*
X104579399Y-77935961D01*
X104612238Y-77914092D01*
X104630208Y-77883309D01*
X104638848Y-77830693D01*
X104641451Y-77791173D01*
X104646661Y-77724603D01*
X104656610Y-77688740D01*
X104676302Y-77672925D01*
X104699275Y-77667974D01*
X104750738Y-77650193D01*
X104776015Y-77609677D01*
X104781695Y-77554361D01*
X104793524Y-77504143D01*
X104822647Y-77484917D01*
X104841952Y-77472340D01*
X109808550Y-77472340D01*
X109811318Y-77519994D01*
X109820138Y-77530242D01*
X109822949Y-77526995D01*
X111738743Y-77526995D01*
X111741583Y-77539291D01*
X111752533Y-77540784D01*
X111769558Y-77533216D01*
X111766322Y-77526995D01*
X111741775Y-77524519D01*
X111738743Y-77526995D01*
X109822949Y-77526995D01*
X109828917Y-77520100D01*
X109846994Y-77473126D01*
X109849284Y-77454098D01*
X109838745Y-77416699D01*
X109828917Y-77406338D01*
X109815158Y-77415355D01*
X109808753Y-77458350D01*
X109808550Y-77472340D01*
X104841952Y-77472340D01*
X104859646Y-77460813D01*
X104897755Y-77415399D01*
X104903103Y-77406799D01*
X104931116Y-77369077D01*
X104967474Y-77343705D01*
X105019116Y-77329407D01*
X105092980Y-77324905D01*
X105196002Y-77328921D01*
X105287572Y-77335977D01*
X105374861Y-77342775D01*
X105445162Y-77346977D01*
X105489372Y-77348114D01*
X105499831Y-77346960D01*
X105486886Y-77333463D01*
X105446655Y-77303006D01*
X105412703Y-77279318D01*
X112186898Y-77279318D01*
X112188555Y-77346866D01*
X112195391Y-77381788D01*
X112210200Y-77392756D01*
X112223095Y-77391651D01*
X112247949Y-77375101D01*
X112256831Y-77332670D01*
X112256775Y-77305620D01*
X112246508Y-77244694D01*
X112224602Y-77197851D01*
X112220578Y-77193287D01*
X112201783Y-77177877D01*
X112191678Y-77184227D01*
X112187605Y-77219128D01*
X112186898Y-77279318D01*
X105412703Y-77279318D01*
X105386586Y-77261096D01*
X105356242Y-77240746D01*
X105259067Y-77172256D01*
X112283845Y-77172256D01*
X112283961Y-77202424D01*
X112296349Y-77223788D01*
X112311237Y-77208479D01*
X112315980Y-77200210D01*
X112327338Y-77166510D01*
X112324616Y-77154507D01*
X112301387Y-77150563D01*
X112283845Y-77172256D01*
X105259067Y-77172256D01*
X105123471Y-77076687D01*
X104911388Y-76907678D01*
X104723721Y-76737347D01*
X104564200Y-76569321D01*
X104436554Y-76407228D01*
X104346354Y-76258374D01*
X104301271Y-76176092D01*
X104251277Y-76095652D01*
X104212309Y-76041191D01*
X104178976Y-75996326D01*
X104128547Y-75924326D01*
X104066267Y-75832873D01*
X103997384Y-75729648D01*
X103944521Y-75649090D01*
X103743055Y-75339725D01*
X103762410Y-75080279D01*
X103769548Y-74961358D01*
X103771350Y-74870676D01*
X103767815Y-74813012D01*
X103762422Y-74795179D01*
X103747924Y-74755546D01*
X103737405Y-74689540D01*
X103731716Y-74612038D01*
X103731712Y-74537915D01*
X103738245Y-74482049D01*
X103743580Y-74466765D01*
X103781643Y-74434229D01*
X103858640Y-74407676D01*
X103887239Y-74401245D01*
X103985429Y-74371723D01*
X104047587Y-74331823D01*
X104051113Y-74327970D01*
X104096019Y-74293952D01*
X104161742Y-74262995D01*
X104194417Y-74252416D01*
X104275126Y-74226419D01*
X104325488Y-74201219D01*
X104341039Y-74179298D01*
X104337460Y-74172889D01*
X104346299Y-74159254D01*
X104380478Y-74139727D01*
X104425846Y-74120730D01*
X104468248Y-74108680D01*
X104482204Y-74107234D01*
X104509411Y-74118045D01*
X104562620Y-74147314D01*
X104633586Y-74190289D01*
X104697592Y-74231338D01*
X104806079Y-74299074D01*
X104885019Y-74340014D01*
X104935993Y-74354605D01*
X104960585Y-74343296D01*
X104960375Y-74306533D01*
X104960157Y-74305654D01*
X104945078Y-74252580D01*
X104935017Y-74222917D01*
X104934938Y-74195199D01*
X104945271Y-74189970D01*
X104966202Y-74173524D01*
X104968168Y-74162363D01*
X104985015Y-74126645D01*
X105029987Y-74077732D01*
X105094730Y-74021937D01*
X105170888Y-73965575D01*
X105250107Y-73914958D01*
X105324032Y-73876399D01*
X105368447Y-73859882D01*
X105424370Y-73840980D01*
X105459038Y-73823017D01*
X105464585Y-73815697D01*
X105480706Y-73793892D01*
X105511124Y-73773134D01*
X105553359Y-73761852D01*
X105621050Y-73755300D01*
X105701184Y-73753378D01*
X105780747Y-73755986D01*
X105846725Y-73763025D01*
X105886105Y-73774395D01*
X105888398Y-73776023D01*
X105921295Y-73790920D01*
X105975584Y-73805517D01*
X105987148Y-73807821D01*
X106042841Y-73825660D01*
X106080267Y-73850974D01*
X106083846Y-73856038D01*
X106105032Y-73878124D01*
X106115690Y-73876704D01*
X106108748Y-73856504D01*
X106079719Y-73812260D01*
X106033630Y-73751167D01*
X105993137Y-73701304D01*
X105929170Y-73622301D01*
X105888632Y-73564762D01*
X105866619Y-73520008D01*
X105858225Y-73479364D01*
X105857582Y-73461494D01*
X105861958Y-73408441D01*
X105880855Y-73381997D01*
X105912599Y-73370272D01*
X105976259Y-73365896D01*
X106077329Y-73374879D01*
X106214159Y-73396948D01*
X106385102Y-73431831D01*
X106588508Y-73479257D01*
X106619551Y-73486899D01*
X106753729Y-73521266D01*
X106896510Y-73559790D01*
X107039528Y-73600030D01*
X107174418Y-73639544D01*
X107292814Y-73675891D01*
X107386352Y-73706629D01*
X107438871Y-73726033D01*
X107451465Y-73722990D01*
X107436645Y-73691876D01*
X107393943Y-73631769D01*
X107384789Y-73619786D01*
X107288942Y-73489978D01*
X107221044Y-73385495D01*
X107179208Y-73303005D01*
X107161546Y-73239179D01*
X107160676Y-73224112D01*
X107160676Y-73155768D01*
X108158903Y-73155768D01*
X108691279Y-73332758D01*
X108868285Y-73392167D01*
X109013086Y-73442743D01*
X109132956Y-73488024D01*
X109235163Y-73531551D01*
X109326980Y-73576861D01*
X109415677Y-73627495D01*
X109508525Y-73686990D01*
X109612796Y-73758886D01*
X109711722Y-73829434D01*
X109799420Y-73890755D01*
X109875861Y-73941027D01*
X109934612Y-73976261D01*
X109969240Y-73992469D01*
X109974994Y-73992675D01*
X109991392Y-73964188D01*
X109994390Y-73941439D01*
X110007784Y-73905313D01*
X110042294Y-73853684D01*
X110074826Y-73815079D01*
X110120311Y-73767854D01*
X110156212Y-73742187D01*
X110197922Y-73732066D01*
X110260836Y-73731480D01*
X110286838Y-73732288D01*
X110378657Y-73740667D01*
X110431966Y-73758330D01*
X110441377Y-73766791D01*
X110478654Y-73790347D01*
X110515736Y-73796973D01*
X110569241Y-73811953D01*
X110603512Y-73837174D01*
X110636861Y-73864073D01*
X110669746Y-73858751D01*
X110680459Y-73852687D01*
X110715361Y-73839906D01*
X110744847Y-73857841D01*
X110756438Y-73871139D01*
X110804147Y-73909473D01*
X110848169Y-73928415D01*
X110889022Y-73945027D01*
X110904487Y-73962839D01*
X110921815Y-73979326D01*
X110945855Y-73983129D01*
X110990883Y-73997168D01*
X111028591Y-74024497D01*
X111077357Y-74055755D01*
X111120449Y-74065866D01*
X111164629Y-74074037D01*
X111184593Y-74087960D01*
X111212666Y-74100908D01*
X111230398Y-74097717D01*
X111266199Y-74101192D01*
X111317896Y-74124870D01*
X111338376Y-74137930D01*
X111399112Y-74169320D01*
X111490140Y-74203283D01*
X111600758Y-74236865D01*
X111720260Y-74267115D01*
X111837943Y-74291079D01*
X111943101Y-74305806D01*
X111949031Y-74306354D01*
X112019799Y-74309575D01*
X112083737Y-74303368D01*
X112155902Y-74285083D01*
X112245873Y-74254079D01*
X112339986Y-74222008D01*
X112403820Y-74206642D01*
X112444286Y-74206569D01*
X112456525Y-74211047D01*
X112505478Y-74226234D01*
X112555198Y-74231338D01*
X112627660Y-74238973D01*
X112727448Y-74259814D01*
X112843870Y-74290762D01*
X112966232Y-74328719D01*
X113083843Y-74370587D01*
X113186009Y-74413267D01*
X113190814Y-74415505D01*
X113369198Y-74499098D01*
X113303650Y-74382954D01*
X113251399Y-74294661D01*
X113181772Y-74183036D01*
X113101520Y-74058355D01*
X113017394Y-73930890D01*
X112936144Y-73810916D01*
X112864522Y-73708704D01*
X112826922Y-73657445D01*
X112787885Y-73610158D01*
X112724209Y-73538384D01*
X112640415Y-73446983D01*
X112541023Y-73340811D01*
X112430555Y-73224727D01*
X112313532Y-73103587D01*
X112268647Y-73057608D01*
X112252076Y-73040559D01*
X113138363Y-73040559D01*
X113149911Y-73087351D01*
X113176793Y-73124374D01*
X113200495Y-73135084D01*
X113220947Y-73121491D01*
X113258969Y-73086907D01*
X113282851Y-73063000D01*
X113321575Y-73019717D01*
X113342595Y-72989542D01*
X113343790Y-72982143D01*
X113319794Y-72979132D01*
X113268904Y-72981387D01*
X113236613Y-72984523D01*
X113176275Y-72994164D01*
X113146999Y-73008999D01*
X113138487Y-73034904D01*
X113138363Y-73040559D01*
X112252076Y-73040559D01*
X112148902Y-72934412D01*
X112032719Y-72813201D01*
X111932603Y-72707264D01*
X113099157Y-72707264D01*
X113102438Y-72729776D01*
X113102962Y-72731745D01*
X113113876Y-72779966D01*
X113125845Y-72843041D01*
X113127153Y-72850678D01*
X113146061Y-72908018D01*
X113175280Y-72927473D01*
X113211907Y-72907546D01*
X113220002Y-72898540D01*
X113232590Y-72859527D01*
X113211041Y-72810313D01*
X113153739Y-72747384D01*
X113148036Y-72742087D01*
X113112175Y-72710867D01*
X113099157Y-72707264D01*
X111932603Y-72707264D01*
X111924890Y-72699102D01*
X111830206Y-72597237D01*
X111753458Y-72512732D01*
X111699439Y-72450711D01*
X111687090Y-72435642D01*
X111566376Y-72284328D01*
X111566376Y-71827079D01*
X111633600Y-71877927D01*
X111700823Y-71928774D01*
X112092351Y-71691178D01*
X112142414Y-71730558D01*
X112188926Y-71759478D01*
X112225884Y-71771489D01*
X112256989Y-71782559D01*
X112313594Y-71811089D01*
X112386392Y-71852184D01*
X112435106Y-71881535D01*
X112515737Y-71932245D01*
X112567717Y-71969089D01*
X112598022Y-71999228D01*
X112613624Y-72029827D01*
X112621497Y-72068048D01*
X112622297Y-72073798D01*
X112637912Y-72141341D01*
X112661645Y-72199357D01*
X112666145Y-72206790D01*
X112701057Y-72241012D01*
X112763049Y-72285619D01*
X112841331Y-72334353D01*
X112925112Y-72380952D01*
X113003601Y-72419157D01*
X113066006Y-72442710D01*
X113077759Y-72445561D01*
X113120656Y-72461835D01*
X113138363Y-72483739D01*
X113158082Y-72502119D01*
X113213388Y-72517826D01*
X113256967Y-72524615D01*
X113344907Y-72537995D01*
X113445971Y-72556787D01*
X113510346Y-72570600D01*
X113572879Y-72581716D01*
X113656551Y-72590497D01*
X113765843Y-72597181D01*
X113905234Y-72602007D01*
X114079205Y-72605212D01*
X114182907Y-72606301D01*
X114352219Y-72608040D01*
X114487891Y-72610456D01*
X114597651Y-72614124D01*
X114689225Y-72619619D01*
X114770342Y-72627515D01*
X114848730Y-72638386D01*
X114932116Y-72652809D01*
X115010269Y-72667810D01*
X115181061Y-72702489D01*
X115317518Y-72733802D01*
X115426157Y-72764888D01*
X115513497Y-72798888D01*
X115586055Y-72838940D01*
X115650349Y-72888186D01*
X115712897Y-72949764D01*
X115780216Y-73026815D01*
X115796750Y-73046680D01*
X115974507Y-73278153D01*
X116157030Y-73548479D01*
X116343040Y-73855590D01*
X116531258Y-74197414D01*
X116646201Y-74421275D01*
X116707028Y-74543274D01*
X116751712Y-74635494D01*
X116782741Y-74705091D01*
X116802604Y-74759223D01*
X116813790Y-74805044D01*
X116818787Y-74849712D01*
X116820083Y-74900383D01*
X116820122Y-74921438D01*
X116818356Y-75007094D01*
X116813722Y-75085123D01*
X116807223Y-75138707D01*
X116807182Y-75138913D01*
X116787986Y-75180905D01*
X116747933Y-75239122D01*
X116694723Y-75304965D01*
X116636054Y-75369836D01*
X116579626Y-75425135D01*
X116533137Y-75462263D01*
X116507978Y-75473114D01*
X116475323Y-75476415D01*
X116412989Y-75484605D01*
X116332164Y-75496182D01*
X116295917Y-75501613D01*
X116191974Y-75515014D01*
X116118824Y-75518180D01*
X116067226Y-75511305D01*
X116052879Y-75506687D01*
X116010920Y-75486707D01*
X115992780Y-75469859D01*
X115992761Y-75469489D01*
X115974909Y-75455640D01*
X115931509Y-75441560D01*
X115927261Y-75440597D01*
X115861987Y-75418897D01*
X115797986Y-75387321D01*
X115738690Y-75360401D01*
X115682296Y-75348394D01*
X115679862Y-75348353D01*
X115629389Y-75337636D01*
X115600868Y-75318579D01*
X115563914Y-75293460D01*
X115510428Y-75275127D01*
X115460612Y-75255421D01*
X115394067Y-75217190D01*
X115327447Y-75170378D01*
X115266046Y-75125386D01*
X115215055Y-75092856D01*
X115184954Y-75079436D01*
X115183990Y-75079383D01*
X115155330Y-75066831D01*
X115107082Y-75034169D01*
X115058139Y-74995416D01*
X114998805Y-74949627D01*
X114966335Y-74935121D01*
X114960502Y-74951922D01*
X114981076Y-75000054D01*
X114982706Y-75003118D01*
X114996465Y-75050995D01*
X115002680Y-75118413D01*
X115002367Y-75146563D01*
X115005396Y-75209396D01*
X115017202Y-75298015D01*
X115035675Y-75398294D01*
X115048766Y-75456883D01*
X115072016Y-75557339D01*
X115092900Y-75654003D01*
X115108442Y-75732800D01*
X115113848Y-75764845D01*
X115141936Y-75858626D01*
X115194625Y-75954381D01*
X115198431Y-75959813D01*
X115242043Y-76029102D01*
X115262612Y-76088129D01*
X115266758Y-76153423D01*
X115262093Y-76224024D01*
X115252939Y-76285582D01*
X115249432Y-76299742D01*
X115246326Y-76331251D01*
X115254397Y-76373455D01*
X115275480Y-76430029D01*
X115311407Y-76504648D01*
X115364013Y-76600987D01*
X115435130Y-76722720D01*
X115526592Y-76873522D01*
X115574532Y-76951289D01*
X115676447Y-77115800D01*
X115758921Y-77248367D01*
X115824129Y-77352317D01*
X115874244Y-77430976D01*
X115911442Y-77487671D01*
X115937896Y-77525730D01*
X115955783Y-77548479D01*
X115967275Y-77559246D01*
X115973353Y-77561468D01*
X116015078Y-77543090D01*
X116061945Y-77493774D01*
X116107348Y-77422247D01*
X116144685Y-77337237D01*
X116146082Y-77333200D01*
X116195493Y-77205779D01*
X116248335Y-77099511D01*
X116301687Y-77018194D01*
X116352628Y-76965628D01*
X116398237Y-76945612D01*
X116433345Y-76959576D01*
X116472914Y-76979704D01*
X116492348Y-76982315D01*
X116520208Y-77000018D01*
X116561110Y-77048528D01*
X116611076Y-77120948D01*
X116666127Y-77210382D01*
X116722286Y-77309932D01*
X116775572Y-77412702D01*
X116822008Y-77511794D01*
X116857615Y-77600313D01*
X116869344Y-77635853D01*
X116898603Y-77726377D01*
X116930212Y-77812839D01*
X116958080Y-77878748D01*
X116962093Y-77886889D01*
X116991881Y-77951406D01*
X117028947Y-78040531D01*
X117069265Y-78143514D01*
X117108814Y-78249607D01*
X117143568Y-78348061D01*
X117169505Y-78428126D01*
X117181463Y-78472955D01*
X117195131Y-78527017D01*
X117217807Y-78604768D01*
X117244966Y-78690806D01*
X117249408Y-78704261D01*
X117281068Y-78791045D01*
X117307329Y-78842392D01*
X117331021Y-78863408D01*
X117338263Y-78864563D01*
X117357917Y-78872504D01*
X117373103Y-78901265D01*
X117386547Y-78958254D01*
X117397257Y-79024864D01*
X117420345Y-79185577D01*
X117438786Y-79322882D01*
X117453094Y-79444771D01*
X117463787Y-79559238D01*
X117471380Y-79674273D01*
X117476390Y-79797868D01*
X117479333Y-79938017D01*
X117480724Y-80102710D01*
X117481081Y-80299941D01*
X117481079Y-80322787D01*
X117480439Y-80468047D01*
X117478654Y-80637549D01*
X117475852Y-80826576D01*
X117472164Y-81030413D01*
X117467719Y-81244344D01*
X117462645Y-81463652D01*
X117457072Y-81683622D01*
X117451130Y-81899537D01*
X117444948Y-82106682D01*
X117438655Y-82300340D01*
X117432380Y-82475795D01*
X117426253Y-82628331D01*
X117420403Y-82753233D01*
X117414960Y-82845784D01*
X117410464Y-82897950D01*
X117384829Y-83119245D01*
X117364518Y-83310139D01*
X117348655Y-83481134D01*
X117336367Y-83642730D01*
X117326779Y-83805428D01*
X117319019Y-83979729D01*
X117317837Y-84010773D01*
X117312481Y-84170571D01*
X117309946Y-84302534D01*
X117310648Y-84418606D01*
X117315005Y-84530733D01*
X117323433Y-84650857D01*
X117336350Y-84790924D01*
X117349541Y-84919165D01*
X117368389Y-85086918D01*
X117391197Y-85272582D01*
X117415991Y-85461122D01*
X117440799Y-85637501D01*
X117462171Y-85777552D01*
X117510687Y-86087579D01*
X117550373Y-86361238D01*
X117581546Y-86602504D01*
X117604523Y-86815355D01*
X117619619Y-87003765D01*
X117627150Y-87171711D01*
X117627435Y-87323169D01*
X117620788Y-87462115D01*
X117607527Y-87592526D01*
X117606958Y-87596901D01*
X117600035Y-87663184D01*
X117591991Y-87762149D01*
X117583416Y-87885150D01*
X117574901Y-88023536D01*
X117567038Y-88168658D01*
X117564820Y-88213748D01*
X117557441Y-88354493D01*
X117549322Y-88486786D01*
X117541016Y-88603137D01*
X117533073Y-88696054D01*
X117526046Y-88758047D01*
X117523675Y-88772217D01*
X117513987Y-88834132D01*
X117503692Y-88922708D01*
X117494395Y-89023301D01*
X117490525Y-89074937D01*
X117482936Y-89172481D01*
X117474314Y-89238675D01*
X117462029Y-89283510D01*
X117443450Y-89316974D01*
X117419252Y-89345540D01*
X117334404Y-89460555D01*
X117287547Y-89586532D01*
X117275171Y-89711040D01*
X117270606Y-89797498D01*
X117257820Y-89855475D01*
X117247916Y-89872165D01*
X117231697Y-89905032D01*
X117214104Y-89966483D01*
X117198626Y-90044022D01*
X117196953Y-90054628D01*
X117187538Y-90117334D01*
X117179471Y-90174692D01*
X117171806Y-90234781D01*
X117163598Y-90305683D01*
X117153901Y-90395476D01*
X117141769Y-90512241D01*
X117130396Y-90623439D01*
X117106705Y-90771010D01*
X117068423Y-90908973D01*
X117019367Y-91025272D01*
X116985595Y-91080690D01*
X116919376Y-91140729D01*
X116829058Y-91168895D01*
X116782958Y-91171566D01*
X116741918Y-91169344D01*
X116709599Y-91158251D01*
X116677318Y-91131647D01*
X116636391Y-91082892D01*
X116594619Y-91027555D01*
X116542334Y-90955695D01*
X116497401Y-90891152D01*
X116467482Y-90845020D01*
X116462473Y-90836228D01*
X116427687Y-90776991D01*
X116385104Y-90713319D01*
X116341919Y-90654900D01*
X116305330Y-90611422D01*
X116282532Y-90592571D01*
X116281344Y-90592413D01*
X116262354Y-90576524D01*
X116261653Y-90570826D01*
X116248676Y-90542580D01*
X116216755Y-90501011D01*
X116209841Y-90493362D01*
X116174157Y-90446784D01*
X116129809Y-90377704D01*
X116086221Y-90300828D01*
X116085017Y-90298542D01*
X116047315Y-90230038D01*
X116014760Y-90176651D01*
X115993595Y-90148520D01*
X115991745Y-90147078D01*
X115970548Y-90122154D01*
X115941236Y-90074313D01*
X115929555Y-90052366D01*
X115893904Y-89991198D01*
X115856841Y-89940243D01*
X115847818Y-89930369D01*
X115808194Y-89884112D01*
X115762995Y-89817715D01*
X115709315Y-89726323D01*
X115644251Y-89605085D01*
X115591525Y-89502134D01*
X115536827Y-89400032D01*
X115477423Y-89299153D01*
X115421177Y-89212367D01*
X115382970Y-89160797D01*
X115336721Y-89101908D01*
X115303301Y-89054184D01*
X115289553Y-89027443D01*
X115289504Y-89026709D01*
X115275591Y-88998486D01*
X115250025Y-88970426D01*
X115214097Y-88925514D01*
X115183977Y-88868971D01*
X115162440Y-88821549D01*
X115145506Y-88793929D01*
X115144389Y-88792901D01*
X115111719Y-88759036D01*
X115063740Y-88699831D01*
X115007434Y-88624793D01*
X114949783Y-88543430D01*
X114897771Y-88465250D01*
X114867552Y-88415954D01*
X114827730Y-88351800D01*
X114794439Y-88306065D01*
X114773639Y-88286730D01*
X114771182Y-88286897D01*
X114754266Y-88275399D01*
X114726271Y-88235701D01*
X114699412Y-88187952D01*
X114634199Y-88063440D01*
X114582657Y-87969492D01*
X114540950Y-87899193D01*
X114528709Y-87880030D01*
X114499452Y-87835051D01*
X114456935Y-87769534D01*
X114410432Y-87697772D01*
X114358179Y-87618669D01*
X114304131Y-87539359D01*
X114264553Y-87483363D01*
X114213396Y-87408997D01*
X114161746Y-87327679D01*
X114147465Y-87303651D01*
X114101401Y-87234443D01*
X114048888Y-87169696D01*
X114029622Y-87149821D01*
X113989987Y-87107244D01*
X113967587Y-87073690D01*
X113965725Y-87066524D01*
X113953184Y-87037893D01*
X113921832Y-86993656D01*
X113908844Y-86977993D01*
X113817725Y-86871732D01*
X113748510Y-86789554D01*
X113695602Y-86724639D01*
X113653399Y-86670170D01*
X113630354Y-86638933D01*
X113593033Y-86592762D01*
X113532976Y-86524479D01*
X113456813Y-86441106D01*
X113371174Y-86349666D01*
X113282692Y-86257181D01*
X113197996Y-86170674D01*
X113123719Y-86097167D01*
X113078379Y-86054374D01*
X113002172Y-85982645D01*
X112955087Y-85932611D01*
X112933688Y-85900445D01*
X112931523Y-85890748D01*
X112921405Y-85863402D01*
X112895505Y-85814418D01*
X112874642Y-85779235D01*
X112845382Y-85734893D01*
X112799472Y-85668929D01*
X112741761Y-85587950D01*
X112677099Y-85498567D01*
X112610337Y-85407388D01*
X112546324Y-85321023D01*
X112489910Y-85246081D01*
X112445945Y-85189172D01*
X112419279Y-85156903D01*
X112414739Y-85152511D01*
X112391169Y-85129507D01*
X112349999Y-85084256D01*
X112299717Y-85026614D01*
X112248814Y-84966439D01*
X112205777Y-84913587D01*
X112182314Y-84882632D01*
X112154859Y-84843674D01*
X112110891Y-84781443D01*
X112057815Y-84706420D01*
X112029503Y-84666436D01*
X111976904Y-84586787D01*
X111913082Y-84481894D01*
X111845011Y-84363661D01*
X111779667Y-84243994D01*
X111759900Y-84206236D01*
X111651166Y-84003910D01*
X111548640Y-83830946D01*
X111445990Y-83677281D01*
X111336886Y-83532855D01*
X111333650Y-83528813D01*
X111284607Y-83462911D01*
X111243360Y-83399212D01*
X111223666Y-83361873D01*
X111193079Y-83310219D01*
X111145126Y-83249025D01*
X111115485Y-83217085D01*
X111063866Y-83156660D01*
X111014222Y-83084135D01*
X110973734Y-83011714D01*
X110949579Y-82951601D01*
X110945855Y-82928747D01*
X110930976Y-82906479D01*
X110890697Y-82864405D01*
X110831561Y-82809009D01*
X110775212Y-82759579D01*
X110701875Y-82696044D01*
X110607242Y-82612695D01*
X110500495Y-82517691D01*
X110390812Y-82419191D01*
X110314992Y-82350519D01*
X110189271Y-82238186D01*
X110076120Y-82142501D01*
X109968322Y-82058687D01*
X109858663Y-81981964D01*
X109739928Y-81907555D01*
X109604900Y-81830681D01*
X109446364Y-81746564D01*
X109260106Y-81651929D01*
X109103283Y-81572872D01*
X108927791Y-81483659D01*
X108747504Y-81391392D01*
X108576299Y-81303173D01*
X108428051Y-81226103D01*
X108425847Y-81224950D01*
X108308063Y-81163710D01*
X108202453Y-81109543D01*
X108114553Y-81065229D01*
X108049901Y-81033546D01*
X108014035Y-81017274D01*
X108008950Y-81015703D01*
X107980768Y-81006464D01*
X107931462Y-80983735D01*
X107875566Y-80954998D01*
X107827614Y-80927736D01*
X107802140Y-80909430D01*
X107801881Y-80909105D01*
X107778598Y-80897604D01*
X107725166Y-80878366D01*
X107651280Y-80854774D01*
X107615725Y-80844159D01*
X107519300Y-80813190D01*
X107423185Y-80777757D01*
X107345418Y-80744596D01*
X107333487Y-80738745D01*
X107267447Y-80708858D01*
X107210465Y-80689253D01*
X107184748Y-80684758D01*
X107144253Y-80675725D01*
X107129650Y-80664074D01*
X107100355Y-80646443D01*
X107078434Y-80643390D01*
X107037175Y-80635489D01*
X106976725Y-80615480D01*
X106946358Y-80603250D01*
X106892301Y-80584488D01*
X106807807Y-80560385D01*
X106703027Y-80533616D01*
X106588106Y-80506857D01*
X106546476Y-80497800D01*
X106365897Y-80457684D01*
X106215430Y-80419813D01*
X106084258Y-80380425D01*
X105961563Y-80335760D01*
X105836527Y-80282057D01*
X105698334Y-80215556D01*
X105619103Y-80175397D01*
X105415972Y-80068719D01*
X105244496Y-79972827D01*
X105097780Y-79883499D01*
X104968928Y-79796512D01*
X104851045Y-79707644D01*
X104837306Y-79696650D01*
X104760736Y-79635559D01*
X104686623Y-79577357D01*
X104627695Y-79532013D01*
X104613814Y-79521617D01*
X104484847Y-79414073D01*
X104456145Y-79381664D01*
X114282851Y-79381664D01*
X114283693Y-79396423D01*
X114300897Y-79431884D01*
X114327157Y-79474816D01*
X114354243Y-79510939D01*
X114384434Y-79542403D01*
X114391177Y-79541495D01*
X114374742Y-79509737D01*
X114345925Y-79464400D01*
X114312411Y-79416135D01*
X114288680Y-79386322D01*
X114282851Y-79381664D01*
X104456145Y-79381664D01*
X104406440Y-79325540D01*
X114237952Y-79325540D01*
X114242984Y-79337100D01*
X114263811Y-79359305D01*
X114275784Y-79354750D01*
X114275986Y-79351858D01*
X114261294Y-79334363D01*
X114252106Y-79327978D01*
X114237952Y-79325540D01*
X104406440Y-79325540D01*
X104392785Y-79310121D01*
X104339206Y-79211659D01*
X104330209Y-79180560D01*
X104311286Y-79069552D01*
X104298726Y-78943493D01*
X104298131Y-78930412D01*
X113990339Y-78930412D01*
X113998967Y-79003805D01*
X114041793Y-79088241D01*
X114120375Y-79186632D01*
X114136383Y-79203878D01*
X114193354Y-79262905D01*
X114224563Y-79291632D01*
X114231388Y-79290981D01*
X114215209Y-79261869D01*
X114209123Y-79252388D01*
X114185625Y-79213493D01*
X114148880Y-79149633D01*
X114105400Y-79072189D01*
X114087811Y-79040377D01*
X114044935Y-78964176D01*
X114017255Y-78920689D01*
X114001127Y-78905804D01*
X113992903Y-78915408D01*
X113990339Y-78930412D01*
X104298131Y-78930412D01*
X104292839Y-78814139D01*
X104293934Y-78693248D01*
G37*
G36*
X116034129Y-72607641D02*
G01*
X116023787Y-72617983D01*
X116013445Y-72607641D01*
X116023787Y-72597299D01*
X116034129Y-72607641D01*
G37*
G36*
X101493249Y-84438911D02*
G01*
X101482907Y-84449253D01*
X101472565Y-84438911D01*
X101482907Y-84428569D01*
X101493249Y-84438911D01*
G37*
G36*
X115224256Y-75542799D02*
G01*
X115246287Y-75562027D01*
X115248135Y-75566679D01*
X115238319Y-75575180D01*
X115217882Y-75556131D01*
X115215134Y-75551921D01*
X115212696Y-75537767D01*
X115224256Y-75542799D01*
G37*
G36*
X104657907Y-81977511D02*
G01*
X104647565Y-81987853D01*
X104637223Y-81977511D01*
X104647565Y-81967168D01*
X104657907Y-81977511D01*
G37*
G36*
X102901806Y-90958523D02*
G01*
X102919500Y-90983638D01*
X102934680Y-91019740D01*
X102925914Y-91022578D01*
X102899349Y-90995252D01*
X102882901Y-90964511D01*
X102884799Y-90952112D01*
X102901806Y-90958523D01*
G37*
G36*
X115041295Y-72380116D02*
G01*
X115030953Y-72390458D01*
X115020611Y-72380116D01*
X115030953Y-72369774D01*
X115041295Y-72380116D01*
G37*
G36*
X105933423Y-80712337D02*
G01*
X105930584Y-80724633D01*
X105919634Y-80726126D01*
X105902608Y-80718558D01*
X105905844Y-80712337D01*
X105930392Y-80709861D01*
X105933423Y-80712337D01*
G37*
G36*
X106840547Y-81814816D02*
G01*
X107042960Y-81868322D01*
X107248967Y-81927703D01*
X107441204Y-81988100D01*
X107491621Y-82005017D01*
X107603896Y-82042206D01*
X107709693Y-82075205D01*
X107799464Y-82101181D01*
X107863666Y-82117300D01*
X107880226Y-82120379D01*
X107972716Y-82142488D01*
X108094158Y-82184563D01*
X108239015Y-82243721D01*
X108401753Y-82317079D01*
X108576838Y-82401754D01*
X108758734Y-82494862D01*
X108941908Y-82593521D01*
X109120823Y-82694848D01*
X109289946Y-82795959D01*
X109443742Y-82893972D01*
X109576675Y-82986004D01*
X109651462Y-83043002D01*
X109862535Y-83216020D01*
X110070833Y-83394115D01*
X110268409Y-83570212D01*
X110447318Y-83737233D01*
X110596088Y-83884470D01*
X110710052Y-84008827D01*
X110843913Y-84167925D01*
X110996880Y-84360683D01*
X111168164Y-84586016D01*
X111356978Y-84842842D01*
X111562532Y-85130077D01*
X111784037Y-85446639D01*
X112020704Y-85791443D01*
X112271745Y-86163406D01*
X112445802Y-86424579D01*
X112760159Y-86901791D01*
X113049771Y-87348388D01*
X113315665Y-87766117D01*
X113558863Y-88156724D01*
X113780391Y-88521956D01*
X113981272Y-88863561D01*
X114162532Y-89183285D01*
X114325193Y-89482875D01*
X114470282Y-89764079D01*
X114598822Y-90028642D01*
X114711838Y-90278312D01*
X114729261Y-90318656D01*
X114786872Y-90452206D01*
X114852860Y-90603917D01*
X114918954Y-90754836D01*
X114975210Y-90882245D01*
X115050667Y-91057628D01*
X115105604Y-91197897D01*
X115140237Y-91303735D01*
X115154780Y-91375826D01*
X115149447Y-91414852D01*
X115144001Y-91420216D01*
X115130750Y-91441775D01*
X115126613Y-91488826D01*
X115131142Y-91568230D01*
X115133018Y-91588280D01*
X115142966Y-91686029D01*
X115154310Y-91791045D01*
X115165817Y-91892587D01*
X115176254Y-91979913D01*
X115184390Y-92042283D01*
X115187248Y-92060980D01*
X115189834Y-92099792D01*
X115190011Y-92160740D01*
X115189342Y-92186864D01*
X115185788Y-92244820D01*
X115174066Y-92272969D01*
X115144679Y-92282852D01*
X115108518Y-92285082D01*
X115053293Y-92289770D01*
X114971346Y-92299458D01*
X114876772Y-92312416D01*
X114834455Y-92318759D01*
X114397076Y-92379897D01*
X113969413Y-92426141D01*
X113532682Y-92459319D01*
X113233155Y-92474828D01*
X113096402Y-92481480D01*
X112970199Y-92489009D01*
X112861618Y-92496884D01*
X112777726Y-92504572D01*
X112725595Y-92511541D01*
X112716054Y-92513744D01*
X112671298Y-92521081D01*
X112589070Y-92528049D01*
X112473263Y-92534563D01*
X112327771Y-92540535D01*
X112156489Y-92545879D01*
X111963311Y-92550509D01*
X111752131Y-92554338D01*
X111526843Y-92557281D01*
X111291342Y-92559249D01*
X111049521Y-92560158D01*
X110805275Y-92559920D01*
X110666621Y-92559239D01*
X110465031Y-92558613D01*
X110258870Y-92559185D01*
X110055871Y-92560852D01*
X109863768Y-92563507D01*
X109690296Y-92567045D01*
X109543189Y-92571360D01*
X109435920Y-92576027D01*
X109298370Y-92583575D01*
X109163391Y-92591006D01*
X109040890Y-92597772D01*
X108940771Y-92603327D01*
X108877451Y-92606870D01*
X108772247Y-92608822D01*
X108654285Y-92605117D01*
X108563947Y-92597999D01*
X108388759Y-92573617D01*
X108178380Y-92535865D01*
X107936445Y-92485640D01*
X107666594Y-92423841D01*
X107372464Y-92351364D01*
X107057693Y-92269106D01*
X106725918Y-92177965D01*
X106380777Y-92078839D01*
X106025908Y-91972624D01*
X106014473Y-91969130D01*
X105882910Y-91931075D01*
X105766066Y-91901447D01*
X105671897Y-91882088D01*
X105608358Y-91874836D01*
X105606481Y-91874823D01*
X105516055Y-91862862D01*
X105415057Y-91831066D01*
X105317168Y-91785569D01*
X105236068Y-91732505D01*
X105193004Y-91689454D01*
X105156501Y-91648457D01*
X105125623Y-91627371D01*
X105121132Y-91626615D01*
X105092383Y-91615426D01*
X105088825Y-91610146D01*
X105068389Y-91594379D01*
X105019204Y-91565618D01*
X104949837Y-91528715D01*
X104906116Y-91506672D01*
X104816602Y-91459208D01*
X104707726Y-91396741D01*
X104594104Y-91327867D01*
X104502777Y-91269432D01*
X104407820Y-91205564D01*
X104343172Y-91158590D01*
X104303747Y-91123986D01*
X104284463Y-91097227D01*
X104280237Y-91073789D01*
X104280438Y-91071533D01*
X104294923Y-91036046D01*
X104329990Y-90977602D01*
X104379920Y-90905171D01*
X104423203Y-90847675D01*
X104560783Y-90671484D01*
X104645542Y-90680470D01*
X104704405Y-90688341D01*
X104789137Y-90701677D01*
X104884987Y-90718111D01*
X104924079Y-90725194D01*
X105014898Y-90741423D01*
X105078321Y-90749636D01*
X105127619Y-90749403D01*
X105176062Y-90740293D01*
X105236922Y-90721873D01*
X105260194Y-90714268D01*
X105329542Y-90689376D01*
X105380198Y-90667081D01*
X105402274Y-90651800D01*
X105402533Y-90650693D01*
X105383224Y-90643981D01*
X105330789Y-90638529D01*
X105253464Y-90634935D01*
X105168801Y-90633781D01*
X105007305Y-90630940D01*
X104828855Y-90622930D01*
X104641248Y-90610520D01*
X104452283Y-90594478D01*
X104269754Y-90575573D01*
X104101460Y-90554574D01*
X103955197Y-90532249D01*
X103838763Y-90509367D01*
X103795797Y-90498423D01*
X103708591Y-90458626D01*
X103612117Y-90390070D01*
X103515247Y-90301173D01*
X103426854Y-90200354D01*
X103355808Y-90096033D01*
X103339030Y-90064970D01*
X103292155Y-89980501D01*
X103233527Y-89886476D01*
X103185498Y-89816761D01*
X103050444Y-89617405D01*
X102941954Y-89424972D01*
X102891053Y-89314751D01*
X102836832Y-89185054D01*
X102890608Y-89029253D01*
X102918230Y-88944815D01*
X102928448Y-88886681D01*
X102917189Y-88843684D01*
X102880382Y-88804658D01*
X102813957Y-88758434D01*
X102785105Y-88739866D01*
X102708462Y-88688456D01*
X102662494Y-88648859D01*
X102641794Y-88612661D01*
X102640951Y-88571447D01*
X102650547Y-88530591D01*
X102662500Y-88476900D01*
X102655135Y-88442370D01*
X102623056Y-88407211D01*
X102614933Y-88399905D01*
X102555124Y-88329597D01*
X102516559Y-88250067D01*
X102506767Y-88193815D01*
X102496715Y-88157918D01*
X102484989Y-88147884D01*
X102465067Y-88122810D01*
X102448146Y-88070881D01*
X102437210Y-88006609D01*
X102435246Y-87944508D01*
X102438208Y-87920510D01*
X102433053Y-87847255D01*
X102414473Y-87808703D01*
X102389975Y-87742671D01*
X102402479Y-87683779D01*
X102449919Y-87640801D01*
X102454561Y-87638585D01*
X102495416Y-87614084D01*
X102501970Y-87587505D01*
X102474266Y-87549923D01*
X102455057Y-87531175D01*
X102413877Y-87480341D01*
X102408925Y-87433229D01*
X102440797Y-87381364D01*
X102467477Y-87354059D01*
X102517978Y-87297095D01*
X102568816Y-87225065D01*
X102612790Y-87150050D01*
X102642697Y-87084128D01*
X102651678Y-87045100D01*
X102656117Y-87009672D01*
X102672468Y-86981460D01*
X102706771Y-86957047D01*
X102765064Y-86933014D01*
X102853388Y-86905945D01*
X102938535Y-86882771D01*
X103190588Y-86815881D01*
X103019321Y-86746537D01*
X102869512Y-86683922D01*
X102728120Y-86621141D01*
X102601915Y-86561452D01*
X102497671Y-86508112D01*
X102422161Y-86464378D01*
X102398039Y-86447700D01*
X102358821Y-86415215D01*
X102338999Y-86385281D01*
X102333393Y-86343294D01*
X102336792Y-86275077D01*
X102339418Y-86218398D01*
X102335453Y-86172661D01*
X102321270Y-86126764D01*
X102293243Y-86069606D01*
X102247744Y-85990085D01*
X102238633Y-85974599D01*
X102170540Y-85847141D01*
X102127705Y-85739790D01*
X102115247Y-85687979D01*
X102098518Y-85616668D01*
X102068442Y-85562166D01*
X102014384Y-85505507D01*
X102011366Y-85502738D01*
X101958199Y-85446079D01*
X101939638Y-85405854D01*
X101956083Y-85383809D01*
X101983189Y-85380035D01*
X102003301Y-85372084D01*
X102007864Y-85341610D01*
X102002682Y-85299013D01*
X101998948Y-85238177D01*
X102011709Y-85210723D01*
X102012837Y-85210286D01*
X102024371Y-85192762D01*
X102022422Y-85147948D01*
X102011460Y-85089639D01*
X102001436Y-85022610D01*
X101996923Y-84935294D01*
X101997834Y-84821131D01*
X102004083Y-84673566D01*
X102005610Y-84645752D01*
X102012120Y-84503586D01*
X102014114Y-84391114D01*
X102011603Y-84312123D01*
X102004600Y-84270400D01*
X102004432Y-84270012D01*
X101997484Y-84239102D01*
X102010008Y-84206781D01*
X102047229Y-84162342D01*
X102066844Y-84142161D01*
X102149666Y-84041783D01*
X102201160Y-83941873D01*
X102217548Y-83856632D01*
X102232930Y-83801174D01*
X102270347Y-83748340D01*
X102317657Y-83712314D01*
X102347690Y-83704628D01*
X102408970Y-83692566D01*
X102441382Y-83659450D01*
X102444715Y-83640363D01*
X102458045Y-83609349D01*
X102496601Y-83601208D01*
X102532268Y-83597278D01*
X102533727Y-83579092D01*
X102524362Y-83562579D01*
X102506575Y-83510882D01*
X102523943Y-83477365D01*
X102572200Y-83467674D01*
X102593887Y-83470609D01*
X102637786Y-83477544D01*
X102648251Y-83471102D01*
X102633729Y-83449829D01*
X102615029Y-83403992D01*
X102632065Y-83367784D01*
X102679260Y-83352999D01*
X102679520Y-83352999D01*
X102725449Y-83337630D01*
X102740285Y-83311631D01*
X102766887Y-83277549D01*
X102805414Y-83270263D01*
X102843633Y-83258644D01*
X102906811Y-83227030D01*
X102986844Y-83180286D01*
X103075625Y-83123277D01*
X103165049Y-83060867D01*
X103208646Y-83028253D01*
X103204368Y-83010363D01*
X103193133Y-82996889D01*
X103167084Y-82956725D01*
X103179584Y-82927975D01*
X103229321Y-82910977D01*
X103314988Y-82906065D01*
X103435274Y-82913578D01*
X103492110Y-82920052D01*
X103584812Y-82931140D01*
X103645244Y-82935942D01*
X103682099Y-82933954D01*
X103704068Y-82924674D01*
X103719845Y-82907600D01*
X103720396Y-82906850D01*
X103746435Y-82881931D01*
X103780447Y-82881860D01*
X103810195Y-82891745D01*
X103853417Y-82904713D01*
X103870202Y-82897744D01*
X103871914Y-82885812D01*
X103887482Y-82859526D01*
X103899519Y-82856582D01*
X103931355Y-82864374D01*
X103990685Y-82884990D01*
X104067383Y-82914293D01*
X104151319Y-82948145D01*
X104232365Y-82982409D01*
X104300394Y-83012948D01*
X104345277Y-83035624D01*
X104356412Y-83043230D01*
X104385346Y-83065261D01*
X104393754Y-83056849D01*
X104381407Y-83023594D01*
X104358735Y-82986227D01*
X104315816Y-82895386D01*
X104306279Y-82815545D01*
X104303642Y-82760714D01*
X104290238Y-82722830D01*
X104257821Y-82687927D01*
X104208277Y-82649518D01*
X104138518Y-82588943D01*
X104106083Y-82542076D01*
X104108128Y-82512743D01*
X104141806Y-82504773D01*
X104204272Y-82521994D01*
X104276122Y-82558267D01*
X104332389Y-82586177D01*
X104376056Y-82598829D01*
X104390310Y-82597231D01*
X104389441Y-82579044D01*
X104355215Y-82549140D01*
X104331163Y-82533767D01*
X104262177Y-82484067D01*
X104231809Y-82444307D01*
X104237654Y-82419106D01*
X104277306Y-82413084D01*
X104348358Y-82430860D01*
X104378526Y-82442838D01*
X104450831Y-82467483D01*
X104490574Y-82467316D01*
X104496500Y-82444562D01*
X104467355Y-82401450D01*
X104425133Y-82360099D01*
X104372112Y-82306385D01*
X104352064Y-82267091D01*
X104353976Y-82249402D01*
X104366463Y-82227356D01*
X104387718Y-82226628D01*
X104431226Y-82246839D01*
X104431934Y-82247205D01*
X104477625Y-82266434D01*
X104505831Y-82270224D01*
X104507660Y-82269099D01*
X104501732Y-82253642D01*
X104485054Y-82244677D01*
X104452705Y-82223732D01*
X104455936Y-82205982D01*
X104489211Y-82199216D01*
X104515140Y-82202336D01*
X104593818Y-82207628D01*
X104653128Y-82191122D01*
X104683983Y-82155446D01*
X104684584Y-82153325D01*
X104713881Y-82119127D01*
X104777410Y-82106103D01*
X104872460Y-82114354D01*
X104926010Y-82120202D01*
X104952377Y-82111059D01*
X104962780Y-82088960D01*
X104976208Y-82065653D01*
X105007714Y-82053786D01*
X105067784Y-82049992D01*
X105084343Y-82049905D01*
X105145887Y-82046435D01*
X105186326Y-82037501D01*
X105195692Y-82029221D01*
X105213666Y-82014698D01*
X105256973Y-82008538D01*
X105257745Y-82008537D01*
X105301323Y-82003184D01*
X105319792Y-81990287D01*
X105319797Y-81990065D01*
X105327532Y-81973672D01*
X105354119Y-81960260D01*
X105404628Y-81948830D01*
X105484128Y-81938381D01*
X105597692Y-81927913D01*
X105659116Y-81923091D01*
X105765979Y-81913115D01*
X105861733Y-81900727D01*
X105936502Y-81887427D01*
X105980411Y-81874717D01*
X105981808Y-81874027D01*
X106029755Y-81859992D01*
X106114066Y-81847363D01*
X106229741Y-81836762D01*
X106330232Y-81830704D01*
X106455261Y-81823378D01*
X106542781Y-81815403D01*
X106596652Y-81806247D01*
X106620732Y-81795375D01*
X106622891Y-81790210D01*
X106639091Y-81772069D01*
X106659088Y-81772043D01*
X106840547Y-81814816D01*
G37*
G36*
X104675396Y-91759086D02*
G01*
X104697601Y-91779912D01*
X104693046Y-91791886D01*
X104690154Y-91792087D01*
X104672659Y-91777396D01*
X104666274Y-91768207D01*
X104663836Y-91754053D01*
X104675396Y-91759086D01*
G37*
G36*
X107470937Y-81398357D02*
G01*
X107460595Y-81408699D01*
X107450253Y-81398357D01*
X107460595Y-81388015D01*
X107470937Y-81398357D01*
G37*
%TD*%
D11*
%TO.C,Capacitor*%
X119550000Y-81500000D03*
X121450000Y-81500000D03*
%TD*%
D12*
%TO.C,D5*%
X111252000Y-81899000D03*
X111252000Y-85201000D03*
X117348000Y-85150000D03*
X117348000Y-81950000D03*
%TD*%
%TO.C,D1*%
X108966000Y-88265000D03*
X108966000Y-91567000D03*
X115062000Y-91516000D03*
X115062000Y-88316000D03*
%TD*%
D13*
%TO.C,D3*%
X108651000Y-73952000D03*
X105349000Y-73952000D03*
X105400000Y-80048000D03*
X108600000Y-80048000D03*
%TD*%
D14*
%TO.C,EEPROM*%
X114475000Y-96095000D03*
X114475000Y-97365000D03*
X114475000Y-98635000D03*
X114475000Y-99905000D03*
X109525000Y-99905000D03*
X109525000Y-98635000D03*
X109525000Y-97365000D03*
X109525000Y-96095000D03*
%TD*%
D12*
%TO.C,D4*%
X110952000Y-76073000D03*
X110952000Y-79375000D03*
X117048000Y-79324000D03*
X117048000Y-76124000D03*
%TD*%
D13*
%TO.C,D2*%
X106651000Y-82952000D03*
X103349000Y-82952000D03*
X103400000Y-89048000D03*
X106600000Y-89048000D03*
%TD*%
D15*
%TO.C,SCL~PullUp*%
X107250000Y-98162500D03*
X107250000Y-96337500D03*
%TD*%
D16*
%TO.C,SDA~PullUp*%
X125587500Y-90500000D03*
X127412500Y-90500000D03*
%TD*%
D17*
%TO.C,Header*%
X117960000Y-88975000D03*
X117960000Y-94025000D03*
X120500000Y-88975000D03*
X120500000Y-94025000D03*
X123040000Y-88975000D03*
X123040000Y-94025000D03*
%TD*%
M02*
